<svg width="60" height="49" viewBox="0 0 60 49" fill="none" xmlns="http://www.w3.org/2000/svg">
<path fill-rule="evenodd" clip-rule="evenodd" d="M14 41.6275C10.8969 41.6275 8.37255 39.1031 8.37255 36C8.37255 32.8969 10.8969 30.3725 14 30.3725C17.1031 30.3725 19.6275 32.8969 19.6275 36C19.6275 39.1031 17.1031 41.6275 14 41.6275M14 29C10.1401 29 7 32.1401 7 36C7 39.8599 10.1401 43 14 43C17.8599 43 21 39.8599 21 36C21 32.1401 17.8599 29 14 29" fill="#0B4595"/>
<path fill-rule="evenodd" clip-rule="evenodd" d="M50.4513 47.4511C45.972 47.4511 42.3278 43.8508 42.3278 39.4253C42.3278 34.9998 45.972 31.3994 50.4513 31.3994C54.9306 31.3994 58.5748 34.9998 58.5748 39.4253C58.5748 43.8508 54.9306 47.4511 50.4513 47.4511V47.4511ZM27.3546 35.83C27.3574 35.7142 27.3634 35.5993 27.3634 35.4828C27.3634 28.0291 21.2257 21.9655 13.6817 21.9655C11.7358 21.9655 9.88475 22.3716 8.20732 23.0984V16.8966H22.8234C23.4348 16.8966 24.0513 16.9439 24.6559 17.0368L55.993 21.8644V31.75C54.4293 30.6447 52.5167 29.9914 50.4513 29.9914C46.4742 29.9914 43.0586 32.4067 41.6249 35.83H27.3546ZM13.6817 47.592C6.92351 47.592 1.42518 42.1597 1.42518 35.4828C1.42518 28.8058 6.92351 23.3736 13.6817 23.3736C20.4399 23.3736 25.9382 28.8058 25.9382 35.4828C25.9382 42.1597 20.4399 47.592 13.6817 47.592V47.592ZM15.7314 1.40805H23.3812V15.5009C23.1951 15.493 23.0092 15.4885 22.8234 15.4885H8.20732V8.84168C8.20732 4.74286 11.5827 1.40805 15.7314 1.40805V1.40805ZM32.7894 16.8647L24.8756 15.6459C24.8525 15.6423 24.8295 15.64 24.8064 15.6366V1.40805H30.3175L32.7894 16.8647ZM57.4181 32.9838V20.6586L45.5202 18.8259V11.849C45.5202 9.25678 47.6548 7.14809 50.2786 7.14809H52.019V5.74004H50.2786C46.869 5.74004 44.095 8.48038 44.095 11.849V18.6065L34.2684 17.0926L31.5352 0H15.7314C10.7969 0 6.78214 3.96647 6.78214 8.84168V23.8174C2.72893 26.1663 0 30.5143 0 35.4828C0 42.9364 6.13767 49 13.6817 49C20.6235 49 26.3701 43.8649 27.2443 37.238H41.1646C40.995 37.9406 40.9026 38.6723 40.9026 39.4253C40.9026 44.6272 45.1861 48.8592 50.4513 48.8592C55.7165 48.8592 60 44.6272 60 39.4253C60 36.9364 59.0178 34.6712 57.4181 32.9838V32.9838Z" fill="#0B4595"/>
<path fill-rule="evenodd" clip-rule="evenodd" d="M51 43.6241C49.0017 43.6241 47.3759 41.9984 47.3759 40.0001C47.3759 38.0016 49.0017 36.3759 51 36.3759C52.9983 36.3759 54.6241 38.0016 54.6241 40.0001C54.6241 41.9984 52.9983 43.6241 51 43.6241M51 35C48.243 35 46 37.2432 46 40.0001C46 42.7571 48.243 45 51 45C53.757 45 56 42.7571 56 40.0001C56 37.2432 53.757 35 51 35" fill="#0B4595"/>
</svg>
