<svg width="61" height="57" viewBox="0 0 61 57" fill="none" xmlns="http://www.w3.org/2000/svg">
<path fill-rule="evenodd" clip-rule="evenodd" d="M59.5779 25.0137C59.5779 26.1406 58.6587 27.0571 57.5284 27.0571H55.1694V15.6302H57.5284C58.6587 15.6302 59.5779 16.547 59.5779 17.6737V25.0137ZM50.4261 48.6344H10.5657C8.73428 48.6344 7.24448 47.1489 7.24448 45.323V32.0448H53.7473V45.323C53.7473 47.1489 52.2575 48.6344 50.4261 48.6344V48.6344ZM51.4802 54.4228C51.4802 55.062 50.9585 55.5821 50.3174 55.5821H45.048C44.4069 55.5821 43.8853 55.062 43.8853 54.4228V50.0523H50.4261C50.7887 50.0523 51.1406 50.0077 51.4802 49.9303V54.4228ZM17.0652 54.4228C17.0652 55.062 16.5436 55.5821 15.9025 55.5821H10.6331C9.99198 55.5821 9.47036 55.062 9.47036 54.4228V49.9198C9.82247 50.0035 10.1882 50.0523 10.5657 50.0523H17.0652V54.4228ZM3.47164 27.0571C2.34164 27.0571 1.4221 26.1406 1.4221 25.0137V17.6737C1.4221 16.547 2.34164 15.6302 3.47164 15.6302H5.82238V27.0571H3.47164ZM14.38 1.41791H46.6117C50.5464 1.41791 53.7473 4.60935 53.7473 8.53242V10.209H7.24448V8.53242C7.24448 4.60935 10.4454 1.41791 14.38 1.41791V1.41791ZM7.24448 30.6269H53.7473V11.6269H7.24448V30.6269ZM57.5284 14.2123H55.1694V8.53242C55.1694 3.82751 51.3305 0 46.6117 0H14.38C9.6612 0 5.82238 3.82751 5.82238 8.53242V14.2123H3.47164C1.55749 14.2123 0 15.7652 0 17.6737V25.0137C0 26.9222 1.55749 28.4751 3.47164 28.4751H5.82238V45.323C5.82238 47.008 6.71375 48.486 8.04825 49.324V54.4228C8.04825 55.8439 9.20784 57 10.6331 57H15.9025C17.3278 57 18.4873 55.8439 18.4873 54.4228V50.0523H42.4632V54.4228C42.4632 55.8439 43.6227 57 45.048 57H50.3174C51.7427 57 52.9023 55.8439 52.9023 54.4228V49.349C54.2595 48.5158 55.1694 47.0253 55.1694 45.323V28.4751H57.5284C59.4425 28.4751 61 26.9222 61 25.0137V17.6737C61 15.7652 59.4425 14.2123 57.5284 14.2123V14.2123Z" fill="#0B4595"/>
<path fill-rule="evenodd" clip-rule="evenodd" d="M25 37H36V36H25V37Z" fill="#0B4595"/>
<path fill-rule="evenodd" clip-rule="evenodd" d="M25 44H36V43H25V44Z" fill="#0B4595"/>
<path fill-rule="evenodd" clip-rule="evenodd" d="M15.5 42.6364C13.7706 42.6364 12.3636 41.2294 12.3636 39.5C12.3636 37.7706 13.7706 36.3636 15.5 36.3636C17.2294 36.3636 18.6364 37.7706 18.6364 39.5C18.6364 41.2294 17.2294 42.6364 15.5 42.6364M15.5 35C13.0187 35 11 37.0187 11 39.5C11 41.9813 13.0187 44 15.5 44C17.9813 44 20 41.9813 20 39.5C20 37.0187 17.9813 35 15.5 35" fill="#0B4595"/>
<path fill-rule="evenodd" clip-rule="evenodd" d="M46.5 42.6364C44.7706 42.6364 43.3636 41.2294 43.3636 39.5C43.3636 37.7706 44.7706 36.3636 46.5 36.3636C48.2294 36.3636 49.6364 37.7706 49.6364 39.5C49.6364 41.2294 48.2294 42.6364 46.5 42.6364M46.5 35C44.0187 35 42 37.0187 42 39.5C42 41.9813 44.0187 44 46.5 44C48.9813 44 51 41.9813 51 39.5C51 37.0187 48.9813 35 46.5 35" fill="#0B4595"/>
</svg>
