<?xml version="1.0" encoding="utf-8"?>
<!-- Generator: Adobe Illustrator 22.1.0, SVG Export Plug-In . SVG Version: 6.00 Build 0)  -->
<svg version="1.1" id="Слой_1" xmlns="http://www.w3.org/2000/svg" xmlns:xlink="http://www.w3.org/1999/xlink" x="0px" y="0px"
	 width="54.7px" height="55.1px" viewBox="0 0 54.7 55.1" style="enable-background:new 0 0 54.7 55.1;" xml:space="preserve">
<style type="text/css">
	.st0{fill:none;stroke:#FFFFFF;stroke-width:2;stroke-linecap:round;stroke-linejoin:round;}
</style>
<title>0EF834F9-3FAC-4697-B857-BC3D61C2F3FB</title>
<g id="Page-1">
	<g id="Index" transform="translate(-1491, -1452)">
		<g id="chat-message-info" transform="translate(1491, 1452)">
			<line id="Path" class="st0" x1="27.8" y1="27.5" x2="27.8" y2="36.5"/>
			<path id="Path_1_" class="st0" d="M27.8,20.4c0.1,0,0.2,0,0.3-0.1c0.1-0.1,0.1-0.2,0.1-0.3v0c0-0.2-0.1-0.3-0.3-0.4
				c-0.2-0.1-0.4,0-0.5,0.1s-0.2,0.3-0.1,0.5S27.6,20.4,27.8,20.4"/>
			<path id="Path_2_" class="st0" d="M5.4,41.4c-7.1-11.2-4.7-26,5.7-34.3s25.3-7.4,34.7,2s10.1,24.4,1.8,34.7s-23.1,12.7-34.3,5.5
				l-7.4,1.2c-0.5,0.1-0.9-0.1-1.3-0.4c-0.3-0.3-0.5-0.8-0.4-1.3L5.4,41.4z"/>
		</g>
	</g>
</g>
</svg>
