<svg width="181" height="181" viewBox="0 0 181 181" fill="none" xmlns="http://www.w3.org/2000/svg">
<g opacity="0.119558">
<path d="M91 89V120" stroke="white" stroke-width="1.5" stroke-linecap="round" stroke-linejoin="round"/>
<path d="M91.0092 63.5C91.4046 63.5002 91.7839 63.3432 92.0635 63.0637C92.3431 62.7841 92.5001 62.4049 92.5 62.0095V61.9908C92.4963 61.3841 92.1274 60.8394 91.5655 60.6107C91.0035 60.382 90.3592 60.5143 89.9328 60.946C89.5065 61.3776 89.3822 62.0236 89.6178 62.5827C89.8535 63.1417 90.4027 63.5038 91.0094 63.5" stroke="white" stroke-width="1.5" stroke-linecap="round" stroke-linejoin="round"/>
<path fill-rule="evenodd" clip-rule="evenodd" d="M14.9788 138.518C-9.5406 99.9555 -1.06954 49.114 34.6285 20.5846C70.3266 -7.94487 121.785 -4.99792 153.992 27.4204C186.2 59.8388 188.811 111.315 160.05 146.826C131.288 182.338 80.3928 190.477 41.9908 165.707L16.4192 169.98C14.8307 170.245 13.2118 169.727 12.073 168.588C10.9342 167.449 10.4158 165.83 10.6812 164.242L14.9788 138.518Z" stroke="white" stroke-width="1.5" stroke-linecap="round" stroke-linejoin="round"/>
</g>
</svg>
