<?xml version="1.0" encoding="utf-8"?>
<!-- Generator: Adobe Illustrator 22.1.0, SVG Export Plug-In . SVG Version: 6.00 Build 0)  -->
<svg version="1.1" id="Слой_1" xmlns="http://www.w3.org/2000/svg" xmlns:xlink="http://www.w3.org/1999/xlink" x="0px" y="0px"
	 width="32.2px" height="32.9px" viewBox="0 0 32.2 32.9" style="enable-background:new 0 0 32.2 32.9;" xml:space="preserve">
<style type="text/css">
	.st0{fill:none;stroke:#0979FE;stroke-width:2;stroke-linecap:round;}
</style>
<title>8A08F953-5995-4E03-911B-BDA2B18728B4</title>
<g id="Page-1">
	<g id="Publications" transform="translate(-369, -355.5)">
		<g id="users-message-support_1" transform="translate(369, 355.5)">
			<path id="Path" class="st0" d="M17.6,20.1c-1.7,0-3,1.3-3,3v1.5c0,1.7,1.3,3,3,3h1.3v2.2c0,0.3,0.2,0.6,0.4,0.7
				c0.3,0.1,0.6,0.1,0.8-0.1l3.1-2.5c0.3-0.2,0.6-0.3,0.9-0.3h4c1.7,0,3-1.3,3-3v-1.5c0-1.7-1.3-3-3-3H17.6z"/>
			<path id="Path_1_" class="st0" d="M4.1,3.6c-1.7,0-3,1.3-3,3v1.5c0,1.7,1.3,3,3,3h4c0.3,0,0.7,0.1,0.9,0.3l3.1,2.5
				c0.2,0.2,0.5,0.2,0.8,0.1c0.3-0.1,0.4-0.4,0.4-0.7v-2.2h1.3c1.7,0,3-1.3,3-3V6.6c0-1.7-1.3-3-3-3H4.1z"/>
			<path id="Path_2_" class="st0" d="M1.1,31.2v-0.6c0-1.7,1.4-3.1,3.1-3.1h4.2c1.7,0,3.1,1.4,3.1,3.1v0.6c0,0.4-0.3,0.8-0.8,0.8h-9
				C1.4,31.9,1.1,31.6,1.1,31.2z"/>
			<circle id="Oval" class="st0" cx="6.3" cy="20.7" r="3"/>
			<path id="Path_3_" class="st0" d="M20.6,14.7v-0.6c0-1.7,1.4-3.1,3.1-3.1h4.2c1.7,0,3.1,1.4,3.1,3.1v0.6c0,0.4-0.3,0.8-0.8,0.8
				h-9C20.9,15.4,20.6,15.1,20.6,14.7z"/>
			<circle id="Oval_1_" class="st0" cx="25.8" cy="4.2" r="3"/>
		</g>
	</g>
</g>
</svg>
