<svg width="67" height="52" viewBox="0 0 67 52" fill="none" xmlns="http://www.w3.org/2000/svg">
<path fill-rule="evenodd" clip-rule="evenodd" d="M17.5 45.5484C15.819 45.5484 14.4516 44.181 14.4516 42.5C14.4516 40.819 15.819 39.4516 17.5 39.4516C19.181 39.4516 20.5484 40.819 20.5484 42.5C20.5484 44.181 19.181 45.5484 17.5 45.5484M17.5 38C15.0186 38 13 40.0186 13 42.5C13 44.9814 15.0186 47 17.5 47C19.9814 47 22 44.9814 22 42.5C22 40.0186 19.9814 38 17.5 38" fill="#0B4595"/>
<path fill-rule="evenodd" clip-rule="evenodd" d="M52.5 45.5484C50.819 45.5484 49.4516 44.181 49.4516 42.5C49.4516 40.819 50.819 39.4516 52.5 39.4516C54.181 39.4516 55.5484 40.819 55.5484 42.5C55.5484 44.181 54.181 45.5484 52.5 45.5484M52.5 38C50.0186 38 48 40.0186 48 42.5C48 44.9814 50.0186 47 52.5 47C54.9814 47 57 44.9814 57 42.5C57 40.0186 54.9814 38 52.5 38" fill="#0B4595"/>
<mask id="mask0_0_771" style="mask-type:luminance" maskUnits="userSpaceOnUse" x="0" y="0" width="67" height="52">
<path fill-rule="evenodd" clip-rule="evenodd" d="M0 0H67V52H0V0Z" fill="white"/>
</mask>
<g mask="url(#mask0_0_771)">
<path fill-rule="evenodd" clip-rule="evenodd" d="M61.5626 41.1914C60.9053 36.6043 56.9318 33.0652 52.1409 33.0652C47.1314 33.0652 43.0163 36.935 42.6512 41.8261H38.9198V7.91305H49.6131C51.8382 7.91305 53.8687 9.035 55.0445 10.9141L57.5865 14.9783H46.3244V19.6037C46.3244 24.3773 50.2288 28.2609 55.0283 28.2609H65.5793V41.1914H61.5626ZM52.1409 50.587C47.6755 50.587 44.0427 46.9738 44.0427 42.5326C44.0427 38.0914 47.6755 34.4783 52.1409 34.4783C56.6062 34.4783 60.239 38.0914 60.239 42.5326C60.239 46.9738 56.6062 50.587 52.1409 50.587V50.587ZM17.1909 50.587C12.7255 50.587 9.09268 46.9738 9.09268 42.5326C9.09268 38.0914 12.7255 34.4783 17.1909 34.4783C21.6562 34.4783 25.289 38.0914 25.289 42.5326C25.289 46.9738 21.6562 50.587 17.1909 50.587V50.587ZM1.42073 33.111V30.1479H37.4991V41.8261H26.6805C26.3156 36.935 22.2006 33.0652 17.1909 33.0652C12.7636 33.0652 9.03273 36.0869 7.97343 40.1655C4.3122 39.8781 1.42073 36.8251 1.42073 33.111V33.111ZM22.2606 12.7174C23.3895 12.7174 24.4766 12.2446 25.243 11.4205L34.5505 1.41304H37.4991V28.7348H1.42073V12.7174H22.2606ZM65.0113 26.8478H55.0283C51.0122 26.8478 47.7451 23.5981 47.7451 19.6037V16.3913H58.4705L65.0113 26.8478ZM67 27.3526L56.2507 10.168C54.8141 7.87122 52.3327 6.5 49.6131 6.5H38.9198V0H33.9291L24.1999 10.4613C23.7015 10.9969 22.9948 11.3044 22.2606 11.3044H0V33.111C0 37.5194 3.39555 41.1529 7.72168 41.563C7.689 41.8821 7.67195 42.2054 7.67195 42.5326C7.67195 47.753 11.9421 52 17.1909 52C22.2006 52 26.3156 48.1303 26.6805 43.2392H42.6512C43.0163 48.1303 47.1314 52 52.1409 52C57.3654 52 61.6188 47.7917 61.6581 42.6044H67V27.3526Z" fill="#0B4595"/>
</g>
</svg>
