<svg width="82" height="48" viewBox="0 0 82 48" fill="none" xmlns="http://www.w3.org/2000/svg">
<path fill-rule="evenodd" clip-rule="evenodd" d="M23.5 36.5C25.1542 36.5 26.5 37.8458 26.5 39.5C26.5 41.1542 25.1542 42.5 23.5 42.5C21.8458 42.5 20.5 41.1542 20.5 39.5C20.5 37.8458 21.8458 36.5 23.5 36.5M23.5 44C25.9813 44 28 41.9813 28 39.5C28 37.0187 25.9813 35 23.5 35C21.0187 35 19 37.0187 19 39.5C19 41.9813 21.0187 44 23.5 44" fill="#0B4595"/>
<path fill-rule="evenodd" clip-rule="evenodd" d="M51 34.4231C52.9724 34.4231 54.5769 36.0278 54.5769 37.9999C54.5769 39.9722 52.9724 41.5769 51 41.5769C49.0276 41.5769 47.4231 39.9722 47.4231 37.9999C47.4231 36.0278 49.0276 34.4231 51 34.4231M51 43C53.7572 43 56 40.7569 56 37.9999C56 35.2431 53.7572 33 51 33C48.2428 33 46 35.2431 46 37.9999C46 40.7569 48.2428 43 51 43" fill="#0B4595"/>
<path fill-rule="evenodd" clip-rule="evenodd" d="M66.4827 45.6997V32.7529H68.649C68.7821 32.7529 68.9078 32.8111 68.9936 32.9122L79.8419 45.6997H66.4827ZM54.6725 22.1664V8.18005H71.976L66.8182 25.9172H61.4404L61.3751 25.8409C59.651 23.8334 57.2669 22.5425 54.6725 22.1664V22.1664ZM47.5086 22.0492V7.47416V6.76828V1.41176H73.9445L72.3867 6.76828H53.2473V22.0535C53.1957 22.0529 53.1444 22.0492 53.0925 22.0492H47.5086ZM46.0835 22.0492H13.8762L18.4536 8.18005H46.0835V22.0492ZM8.67056 18.3162L6.83435 23.4353H2.13322L5.82645 14.6087H14.8328L13.6091 18.3162H8.67056ZM24.0121 32.1882C28.02 32.1882 31.2806 35.4184 31.2806 39.3882C31.2806 43.3584 28.02 46.5882 24.0121 46.5882C20.0042 46.5882 16.7437 43.3584 16.7437 39.3882C16.7437 35.4184 20.0042 32.1882 24.0121 32.1882V32.1882ZM51.0907 28.9412C56.0022 28.9412 59.9981 32.8995 59.9981 37.7647C59.9981 42.6302 56.0022 46.5882 51.0907 46.5882C46.1792 46.5882 42.1833 42.6302 42.1833 37.7647C42.1833 32.8995 46.1792 28.9412 51.0907 28.9412V28.9412ZM81.8163 45.8327L70.0848 32.0039C69.7276 31.5829 69.2043 31.3412 68.649 31.3412H66.0994L62.653 27.3289H67.8908L75.5478 0.999247C75.6159 0.764329 75.5683 0.507388 75.4198 0.312C75.2713 0.116894 75.0356 0 74.789 0H46.0835V6.76828H17.4204L15.2985 13.1969H4.87443L0 24.8471H7.84053L9.67646 19.728H13.1431L10.4301 27.9481C10.3278 28.2579 10.421 28.5973 10.6658 28.8107L16.9657 34.3536C15.9308 35.7707 15.3185 37.5097 15.3185 39.3882C15.3185 44.1368 19.2187 48 24.0121 48C28.5656 48 32.3102 44.5135 32.6741 40.0941H41.0312C42.0989 44.6188 46.2023 48 51.0907 48C56.788 48 61.4233 43.4087 61.4233 37.7647C61.4233 32.121 56.788 27.5294 51.0907 27.5294C45.3934 27.5294 40.7581 32.121 40.7581 37.7647C40.7581 38.0742 40.7743 38.38 40.8017 38.6824H32.6741C32.3102 34.2632 28.5656 30.7765 24.0121 30.7765C21.6269 30.7765 19.4635 31.7336 17.8912 33.2798L11.9072 28.0148L13.4104 23.461H46.796H47.5086H53.0925C55.8682 23.461 58.4914 24.6618 60.2894 26.7558L65.0575 32.3068V47.1114H81.2149C81.5193 47.1114 81.7987 46.9347 81.9272 46.6614C82.0555 46.388 82.0116 46.0625 81.8163 45.8327V45.8327Z" fill="#0B4595"/>
</svg>
