<?xml version="1.0" encoding="utf-8"?>
<!-- Generator: Adobe Illustrator 22.1.0, SVG Export Plug-In . SVG Version: 6.00 Build 0)  -->
<svg version="1.1" id="Слой_1" xmlns="http://www.w3.org/2000/svg" xmlns:xlink="http://www.w3.org/1999/xlink" x="0px" y="0px"
	 width="32.5px" height="38.1px" viewBox="0 0 32.5 38.1" style="enable-background:new 0 0 32.5 38.1;" xml:space="preserve">
<style type="text/css">
	.st0{fill:none;stroke:#0979FE;stroke-width:2;stroke-linecap:round;}
</style>
<title>6CD7387C-E461-4CCA-9ED9-22A285DBA9E1</title>
<g id="Page-1">
	<g id="Publications" transform="translate(-994, -353)">
		<g id="book-open-left" transform="translate(994, 353)">
			<path id="Path" class="st0" d="M18.8,1.5l-15,5C2.2,7,1.2,8.4,1.2,10v23.1c0,1.2,0.6,2.3,1.6,3s2.2,0.9,3.4,0.5l15-5
				c1.5-0.5,2.6-1.9,2.6-3.6V5c0-1.2-0.6-2.3-1.6-3C21.2,1.3,19.9,1.1,18.8,1.5z"/>
			<path id="Path_1_" class="st0" d="M5,36.9h22.5c2.1,0,3.8-1.7,3.8-3.8V10.6c0-2.1-1.7-3.8-3.8-3.8h-3.8"/>
		</g>
	</g>
</g>
</svg>
