<svg width="64" height="52" viewBox="0 0 64 52" fill="none" xmlns="http://www.w3.org/2000/svg">
<path fill-rule="evenodd" clip-rule="evenodd" d="M21 45.5185C19.6113 45.5185 18.4815 44.3887 18.4815 43C18.4815 41.6113 19.6113 40.4815 21 40.4815C22.3887 40.4815 23.5185 41.6113 23.5185 43C23.5185 44.3887 22.3887 45.5185 21 45.5185M21 39C18.7944 39 17 40.7944 17 43C17 45.2056 18.7944 47 21 47C23.2056 47 25 45.2056 25 43C25 40.7944 23.2056 39 21 39" fill="#0B4595"/>
<path fill-rule="evenodd" clip-rule="evenodd" d="M21.0458 34C17.0048 34 13.588 36.7503 12.5161 40.5H1.40969V28.8489H34.1808V40.5H29.5756C28.5037 36.7503 25.0869 34 21.0458 34V34ZM21.0459 50.5714C16.9262 50.5714 13.5745 47.1749 13.5745 43C13.5745 38.8251 16.9262 35.4286 21.0459 35.4286C25.1655 35.4286 28.5172 38.8251 28.5172 43C28.5172 47.1749 25.1655 50.5714 21.0459 50.5714V50.5714ZM10.7717 1.42857H45.9393C51.1016 1.42857 55.3014 5.68457 55.3014 10.916V27.4203H48.7753V13.794C48.7753 12.4897 47.7282 11.4286 46.4412 11.4286H36.5152C35.2279 11.4286 34.1808 12.4897 34.1808 13.794V27.4203H1.40969V10.916C1.40969 5.68457 5.60945 1.42857 10.7717 1.42857V1.42857ZM48.7753 40.5H55.3014V28.8489H48.7753V40.5ZM47.3656 40.5H35.5905V13.794C35.5905 13.2774 36.0055 12.8571 36.5152 12.8571H46.4412C46.9509 12.8571 47.3656 13.2774 47.3656 13.794V40.5ZM62.5903 36.0169V36.8511C62.5903 38.8631 60.9751 40.5 58.9894 40.5H56.711V10.916C56.711 4.89686 51.8789 0 45.9393 0H10.7717C4.83214 0 0 4.89686 0 10.916V41.9286H12.2299C12.1885 42.2803 12.1648 42.6371 12.1648 43C12.1648 47.9626 16.1489 52 21.0459 52C25.9428 52 29.9269 47.9626 29.9269 43C29.9269 42.6371 29.9032 42.2803 29.8618 41.9286H58.9894C61.7521 41.9286 64 39.6506 64 36.8511V36.0169H62.5903Z" fill="#0B4595"/>
<path fill-rule="evenodd" clip-rule="evenodd" d="M11.4167 20.5556H25.5833V10.4444H11.4167V20.5556ZM10 22H27V9H10V22Z" fill="#0B4595"/>
</svg>
