<?xml version="1.0" encoding="UTF-8"?>
<svg width="231px" height="99px" viewBox="0 0 231 99" version="1.1" xmlns="http://www.w3.org/2000/svg" xmlns:xlink="http://www.w3.org/1999/xlink">
    <title>Logo Copy</title>
    <defs>
        <linearGradient x1="50.0596017%" y1="99.952268%" x2="50.0596017%" y2="-0.0765979381%" id="linearGradient-1">
            <stop stop-color="#2D2377" offset="0%"></stop>
            <stop stop-color="#2F277A" offset="9.12493%"></stop>
            <stop stop-color="#343483" offset="18.69%"></stop>
            <stop stop-color="#3D4992" offset="28.45%"></stop>
            <stop stop-color="#4966A7" offset="38.36%"></stop>
            <stop stop-color="#588BC1" offset="48.28%"></stop>
            <stop stop-color="#598EC3" offset="48.88%"></stop>
            <stop stop-color="#486AA0" offset="58.71%"></stop>
            <stop stop-color="#354279" offset="71.23%"></stop>
            <stop stop-color="#28265D" offset="82.72%"></stop>
            <stop stop-color="#20144C" offset="92.68%"></stop>
            <stop stop-color="#1D0E46" offset="100%"></stop>
        </linearGradient>
        <linearGradient x1="49.8600169%" y1="99.952268%" x2="49.8600169%" y2="-0.0765979381%" id="linearGradient-2">
            <stop stop-color="#2D2377" offset="0%"></stop>
            <stop stop-color="#2F277A" offset="9.12493%"></stop>
            <stop stop-color="#343483" offset="18.69%"></stop>
            <stop stop-color="#3D4992" offset="28.45%"></stop>
            <stop stop-color="#4966A7" offset="38.36%"></stop>
            <stop stop-color="#588BC1" offset="48.28%"></stop>
            <stop stop-color="#598EC3" offset="48.88%"></stop>
            <stop stop-color="#486AA0" offset="58.71%"></stop>
            <stop stop-color="#354279" offset="71.23%"></stop>
            <stop stop-color="#28265D" offset="82.72%"></stop>
            <stop stop-color="#20144C" offset="92.68%"></stop>
            <stop stop-color="#1D0E46" offset="100%"></stop>
        </linearGradient>
        <linearGradient x1="51.96875%" y1="99.6226667%" x2="51.96875%" y2="-0.190666667%" id="linearGradient-3">
            <stop stop-color="#565D5E" offset="0%"></stop>
            <stop stop-color="#565D5E" offset="13.79%"></stop>
            <stop stop-color="#BABABA" offset="49.78%"></stop>
            <stop stop-color="#B0B1B1" offset="56.09%"></stop>
            <stop stop-color="#969899" offset="66.71%"></stop>
            <stop stop-color="#6C7171" offset="80.25%"></stop>
            <stop stop-color="#4C5354" offset="89.16%"></stop>
            <stop stop-color="#4C5354" offset="100%"></stop>
        </linearGradient>
        <linearGradient x1="49.6996587%" y1="100.096484%" x2="49.6996587%" y2="0.241015625%" id="linearGradient-4">
            <stop stop-color="#2D2377" offset="0%"></stop>
            <stop stop-color="#2F277A" offset="9.12493%"></stop>
            <stop stop-color="#343483" offset="18.69%"></stop>
            <stop stop-color="#3D4992" offset="28.45%"></stop>
            <stop stop-color="#4966A7" offset="38.36%"></stop>
            <stop stop-color="#588BC1" offset="48.28%"></stop>
            <stop stop-color="#598EC3" offset="48.88%"></stop>
            <stop stop-color="#486AA0" offset="58.71%"></stop>
            <stop stop-color="#354279" offset="71.23%"></stop>
            <stop stop-color="#28265D" offset="82.72%"></stop>
            <stop stop-color="#20144C" offset="92.68%"></stop>
            <stop stop-color="#1D0E46" offset="100%"></stop>
        </linearGradient>
        <linearGradient x1="51.3333333%" y1="100.336696%" x2="51.3333333%" y2="-0.432440125%" id="linearGradient-5">
            <stop stop-color="#565D5E" offset="0%"></stop>
            <stop stop-color="#565D5E" offset="13.79%"></stop>
            <stop stop-color="#BABABA" offset="49.78%"></stop>
            <stop stop-color="#B0B1B1" offset="56.09%"></stop>
            <stop stop-color="#969899" offset="66.71%"></stop>
            <stop stop-color="#6C7171" offset="80.25%"></stop>
            <stop stop-color="#4C5354" offset="89.16%"></stop>
            <stop stop-color="#4C5354" offset="100%"></stop>
        </linearGradient>
    </defs>
    <g id="Page-1" stroke="none" stroke-width="1" fill="none" fill-rule="evenodd">
        <g id="Index" transform="translate(-347, -3268)" fill-rule="nonzero">
            <g id="Logo-Copy" transform="translate(347, 3268)">
                <path d="M0.00858544501,52.2 C0.408585445,72 12.0085854,88.9 28.6085854,97.1 L48.3085854,0.1 C20.9085854,1.5 -0.491414555,24.5 0.00858544501,52.2" id="Path" fill="url(#linearGradient-1)"></path>
                <path d="M73.9085854,97.1 C90.5085854,88.9 102.108585,72 102.508585,52.2 C103.108585,24.6 81.6085854,1.6 54.2085854,0.1 L73.9085854,97.1 Z" id="Path" fill="url(#linearGradient-2)"></path>
                <path d="M50.4085854,91.7 L50.4085854,97.6 C50.4085854,98 50.8085854,98.4 51.2085854,98.4 C51.6085854,98.4 52.0085854,98 52.0085854,97.6 L52.0085854,91.7 C52.0085854,91.3 51.6085854,90.9 51.2085854,90.9 C50.8085854,90.9 50.4085854,91.2 50.4085854,91.7 M50.4085854,78.7 L50.4085854,84.6 C50.4085854,85 50.8085854,85.4 51.2085854,85.4 C51.6085854,85.4 52.0085854,85 52.0085854,84.6 L52.0085854,78.7 C52.0085854,78.3 51.6085854,77.9 51.2085854,77.9 C50.8085854,77.9 50.4085854,78.3 50.4085854,78.7 M50.4085854,65.7 L50.4085854,71.6 C50.4085854,72 50.8085854,72.4 51.2085854,72.4 C51.6085854,72.4 52.0085854,72 52.0085854,71.6 L52.0085854,65.7 C52.0085854,65.3 51.6085854,64.9 51.2085854,64.9 C50.8085854,64.9 50.4085854,65.3 50.4085854,65.7 M50.4085854,52.7 L50.4085854,58.6 C50.4085854,59 50.8085854,59.4 51.2085854,59.4 C51.6085854,59.4 52.0085854,59 52.0085854,58.6 L52.0085854,52.7 C52.0085854,52.3 51.6085854,51.9 51.2085854,51.9 C50.8085854,51.9 50.4085854,52.3 50.4085854,52.7 M50.4085854,39.8 L50.4085854,45.7 C50.4085854,46.1 50.8085854,46.5 51.2085854,46.5 C51.6085854,46.5 52.0085854,46.1 52.0085854,45.7 L52.0085854,39.8 C52.0085854,39.4 51.6085854,39 51.2085854,39 C50.8085854,39 50.4085854,39.3 50.4085854,39.8 M50.4085854,26.8 L50.4085854,32.7 C50.4085854,33.1 50.8085854,33.5 51.2085854,33.5 C51.6085854,33.5 52.0085854,33.1 52.0085854,32.7 L52.0085854,26.8 C52.0085854,26.4 51.6085854,26 51.2085854,26 C50.8085854,26 50.4085854,26.3 50.4085854,26.8 M50.4085854,13.8 L50.4085854,19.7 C50.4085854,20.1 50.8085854,20.5 51.2085854,20.5 C51.6085854,20.5 52.0085854,20.1 52.0085854,19.7 L52.0085854,13.8 C52.0085854,13.4 51.6085854,13 51.2085854,13 C50.8085854,13 50.4085854,13.4 50.4085854,13.8 M50.4085854,0.8 L50.4085854,6.7 C50.4085854,7.1 50.8085854,7.5 51.2085854,7.5 C51.6085854,7.5 52.0085854,7.1 52.0085854,6.7 L52.0085854,0.8 C52.0085854,0.4 51.6085854,0 51.2085854,0 C50.8085854,0 50.4085854,0.4 50.4085854,0.8" id="Combined-Shape" fill="url(#linearGradient-3)"></path>
                <path d="M118.208585,29.6 C116.508585,29.6 115.108585,29.8 114.008585,30.2 C113.008585,30.6 112.108585,31.2 111.408585,31.9 C110.708585,32.6 110.208585,33.4 109.808585,34.3 C109.408585,35.2 109.208585,36.2 109.208585,37.2 C109.208585,38.3 109.408585,39.2 109.808585,40.1 C110.208585,41 110.708585,41.8 111.408585,42.5 C112.108585,43.2 113.008585,43.8 114.008585,44.2 C115.108585,44.6 116.408585,44.8 118.208585,44.8 L128.708585,44.8 C129.208585,44.8 129.608585,44.8 129.908585,44.9 C130.208585,45 130.408585,45.1 130.608585,45.3 C131.008585,45.7 131.108585,46.1 131.108585,46.7 C131.108585,47.2 131.008585,47.5 130.708585,47.9 C130.508585,48.1 130.308585,48.3 130.008585,48.4 C129.708585,48.5 129.308585,48.6 128.808585,48.6 L110.108585,48.6 L110.108585,55.1 L130.108585,55.1 C131.608585,55.1 132.908585,54.9 134.008585,54.4 C135.108585,53.9 135.908585,53.3 136.608585,52.5 C137.208585,51.8 137.608585,51 138.008585,50.2 C138.308585,49.3 138.508585,48.4 138.508585,47.5 C138.508585,46.5 138.308585,45.5 137.908585,44.6 C137.508585,43.7 137.008585,42.9 136.308585,42.2 C135.608585,41.5 134.808585,40.9 133.808585,40.5 C132.808585,40.1 131.608585,39.9 130.108585,39.9 L118.808585,39.9 C118.408585,39.9 118.108585,39.9 117.908585,39.8 C117.708585,39.7 117.508585,39.6 117.308585,39.5 C116.908585,39.1 116.708585,38.7 116.708585,38.1 C116.708585,37.6 116.908585,37.1 117.208585,36.8 C117.408585,36.6 117.508585,36.5 117.808585,36.4 C118.008585,36.3 118.408585,36.3 118.808585,36.3 L137.308585,36.3 L137.308585,29.5 L118.208585,29.5 L118.208585,29.6 Z M140.908585,29.6 L140.908585,46.8 C140.908585,48.2 141.008585,49.4 141.308585,50.4 C141.608585,51.4 142.008585,52.3 142.708585,53 C143.308585,53.7 144.208585,54.2 145.308585,54.6 C146.408585,54.9 147.708585,55.1 149.308585,55.1 L168.008585,55.1 L168.008585,48.6 L150.108585,48.6 C149.208585,48.6 148.608585,48.4 148.308585,48.1 C148.008585,47.8 147.808585,47.1 147.808585,46.2 L147.808585,29.6 L140.908585,29.6 L140.908585,29.6 Z M177.608585,48.4 L177.608585,44.7 L189.608585,44.7 C190.108585,44.7 190.508585,44.8 190.808585,44.9 C191.108585,45 191.408585,45.2 191.608585,45.4 C192.008585,45.8 192.208585,46.3 192.208585,46.8 C192.208585,47.3 192.008585,47.8 191.708585,48.2 C191.508585,48.4 191.208585,48.6 190.908585,48.7 C190.608585,48.8 190.208585,48.9 189.708585,48.9 L178.308585,48.9 C177.808585,48.9 177.608585,48.7 177.608585,48.4 M177.608585,36.6 C177.608585,36.2 177.808585,36 178.108585,36 L189.608585,36 C190.108585,36 190.508585,36.1 190.808585,36.2 C191.108585,36.3 191.308585,36.5 191.508585,36.7 C191.808585,37.1 192.008585,37.5 192.008585,37.9 C192.008585,38.4 191.808585,38.8 191.508585,39.1 C191.308585,39.4 191.108585,39.5 190.808585,39.7 C190.508585,39.8 190.108585,39.9 189.608585,39.9 L177.608585,39.9 L177.608585,36.6 L177.608585,36.6 Z M172.408585,29.6 C171.308585,29.6 170.708585,30.1 170.708585,31.2 L170.708585,53.5 C170.708585,54.6 171.308585,55.1 172.408585,55.1 L191.208585,55.1 C192.708585,55.1 194.008585,54.9 195.008585,54.4 C196.008585,53.9 196.908585,53.3 197.508585,52.5 C198.108585,51.8 198.508585,51.1 198.808585,50.3 C199.108585,49.5 199.308585,48.6 199.308585,47.7 C199.308585,46.5 199.108585,45.4 198.608585,44.4 C198.108585,43.4 197.408585,42.6 196.408585,42.1 C197.208585,41.5 197.908585,40.8 198.308585,39.9 C198.708585,39 199.008585,38 199.008585,36.9 C199.008585,35.8 198.808585,34.9 198.508585,34 C198.108585,33.2 197.708585,32.4 197.108585,31.8 C195.608585,30.2 193.508585,29.4 190.808585,29.4 L172.408585,29.4 L172.408585,29.6 Z M200.808585,29.6 L200.808585,36.3 L212.108585,36.3 L212.108585,55.1 L219.008585,55.1 L219.008585,36.3 L230.308585,36.3 L230.308585,29.6 L200.808585,29.6 Z" id="Combined-Shape" fill="url(#linearGradient-4)"></path>
                <path d="M111.608585,59 C111.208585,59.1 110.808585,59.3 110.508585,59.6 C110.208585,59.9 110.008585,60.2 109.808585,60.5 C109.608585,60.9 109.508585,61.3 109.508585,61.7 L109.508585,61.7 C109.508585,62.2 109.608585,62.6 109.708585,62.9 C109.908585,63.2 110.108585,63.5 110.408585,63.7 C110.708585,63.9 111.008585,64.1 111.408585,64.3 C111.808585,64.4 112.308585,64.6 112.708585,64.7 C113.108585,64.8 113.408585,64.9 113.708585,65 C114.008585,65.1 114.208585,65.2 114.308585,65.3 C114.408585,65.4 114.508585,65.5 114.608585,65.6 C114.708585,65.7 114.708585,65.8 114.708585,66 L114.708585,66 C114.708585,66.3 114.608585,66.5 114.308585,66.7 C114.108585,66.9 113.708585,66.9 113.308585,66.9 C112.708585,66.9 112.208585,66.8 111.808585,66.6 C111.308585,66.4 110.908585,66.1 110.408585,65.7 L109.108585,67.2 C109.708585,67.7 110.308585,68.1 111.108585,68.4 C111.808585,68.7 112.608585,68.8 113.308585,68.8 C113.808585,68.8 114.308585,68.7 114.808585,68.6 C115.208585,68.5 115.608585,68.3 115.908585,68 C116.208585,67.7 116.508585,67.4 116.608585,67 C116.808585,66.6 116.908585,66.2 116.908585,65.7 L116.908585,65.7 C116.908585,65.3 116.808585,64.9 116.708585,64.6 C116.608585,64.3 116.408585,64 116.108585,63.8 C115.808585,63.6 115.508585,63.4 115.108585,63.2 C114.708585,63 114.308585,62.9 113.808585,62.8 C113.408585,62.7 113.008585,62.6 112.808585,62.5 C112.508585,62.4 112.308585,62.3 112.108585,62.2 C111.908585,62.1 111.808585,62 111.808585,61.9 C111.708585,61.8 111.708585,61.6 111.708585,61.5 L111.708585,61.5 C111.708585,61.3 111.808585,61.1 112.008585,60.9 C112.208585,60.7 112.508585,60.7 112.908585,60.7 C113.308585,60.7 113.708585,60.8 114.208585,61 C114.608585,61.2 115.008585,61.4 115.508585,61.7 L116.608585,60.1 C116.108585,59.7 115.508585,59.4 114.908585,59.2 C114.308585,59 113.608585,58.9 112.908585,58.9 C112.508585,58.7 112.108585,58.8 111.608585,59 M127.408585,61.4 L128.708585,64.6 L126.108585,64.6 L127.408585,61.4 Z M126.408585,58.8 L122.208585,68.7 L124.408585,68.7 L125.308585,66.5 L129.408585,66.5 L130.308585,68.7 L132.608585,68.7 L128.408585,58.8 L126.408585,58.8 Z M138.308585,58.9 L138.308585,68.7 L140.508585,68.7 L140.508585,64.9 L145.208585,64.9 L145.208585,62.9 L140.508585,62.9 L140.508585,60.8 L145.808585,60.8 L145.808585,58.9 L138.308585,58.9 Z M151.708585,58.9 L151.708585,68.7 L159.208585,68.7 L159.208585,66.8 L153.808585,66.8 L153.808585,64.7 L158.508585,64.7 L158.508585,62.8 L153.808585,62.8 L153.808585,60.8 L159.108585,60.8 L159.108585,58.9 L151.708585,58.9 Z M169.508585,58.9 L169.508585,68.7 L171.708585,68.7 L171.708585,64.9 L176.308585,64.9 L176.308585,62.9 L171.708585,62.9 L171.708585,60.8 L177.008585,60.8 L177.008585,58.9 L169.508585,58.9 Z M182.908585,58.9 L182.908585,68.7 L190.008585,68.7 L190.008585,66.7 L185.108585,66.7 L185.108585,58.9 L182.908585,58.9 Z M195.808585,58.9 L195.808585,68.7 L203.208585,68.7 L203.208585,66.8 L197.908585,66.8 L197.908585,64.7 L202.508585,64.7 L202.508585,62.8 L197.908585,62.8 L197.908585,60.8 L203.208585,60.8 L203.208585,58.9 L195.808585,58.9 Z M209.408585,58.9 L209.408585,68.7 L216.808585,68.7 L216.808585,66.8 L211.508585,66.8 L211.508585,64.7 L216.108585,64.7 L216.108585,62.8 L211.508585,62.8 L211.508585,60.8 L216.708585,60.8 L216.708585,58.9 L209.408585,58.9 Z M222.308585,58.9 L222.308585,60.9 L225.208585,60.9 L225.208585,68.7 L227.408585,68.7 L227.408585,60.9 L230.408585,60.9 L230.408585,58.9 L222.308585,58.9 Z" id="Combined-Shape" fill="url(#linearGradient-5)"></path>
            </g>
        </g>
    </g>
</svg>