<?xml version="1.0" encoding="UTF-8"?>
<svg width="250.000529px" height="71.3401242px" viewBox="0 0 250.000529 71.3401242" version="1.1" xmlns="http://www.w3.org/2000/svg" xmlns:xlink="http://www.w3.org/1999/xlink">
    <title>C82A4B1C-95AB-40A6-B0B7-D48785394ED4</title>
    <g id="Page-1" stroke="none" stroke-width="1" fill="none" fill-rule="evenodd">
        <g id="Index" transform="translate(-347, -11.0004)">
            <g id="Group-30" transform="translate(347, 11.0004)">
                <path d="M28.5539708,53.9201692 L33.5902618,53.9201692 L33.5902618,48.8838783 L28.5539708,48.8838783 L28.5539708,53.9201692 Z M26.0358254,56.4383147 L36.1084072,56.4383147 L36.1084072,46.3657329 L26.0358254,46.3657329 L26.0358254,56.4383147 Z" id="Fill-1" fill="#0979FE"></path>
                <g id="Group-29">
                    <path d="M6.6069577,26.5689303 C7.2206234,26.8916338 7.9824153,26.6562189 8.30776393,26.0425532 C9.44780667,23.8762075 11.6749899,22.5298461 14.1217174,22.5298461 C14.9760882,22.5298461 15.8251688,22.7229392 16.6557335,23.0826743 C16.5393487,23.6936948 16.4732209,24.3205861 16.4732209,24.9659931 C16.4732209,29.7457083 19.8695431,33.8985322 24.5487441,34.8375465 L25.2311827,34.8639977 C25.9268468,34.8639977 26.4902554,34.3005891 26.4902554,33.6049249 C26.4902554,32.9092608 25.9268468,32.3458522 25.2311827,32.3458522 L24.9269949,32.3458522 C21.4804156,31.5946407 18.9887212,28.5104416 18.9887212,24.9659931 C18.9887212,20.7999437 22.3771082,17.4115567 26.5431576,17.4115567 C28.6354403,17.4115567 30.6034027,18.2791531 32.0317625,19.7895113 C30.2225067,21.2443223 29.0613031,23.4688604 29.0613031,25.965845 C29.0613031,26.658864 29.6247117,27.2222726 30.3203758,27.2222726 C31.01604,27.2222726 31.5794485,26.658864 31.5794485,25.965845 C31.5794485,22.9848052 34.00237,20.5592386 36.986055,20.5592386 C39.3613645,20.5592386 41.427196,22.1039833 42.1281503,24.3999394 C42.2365999,24.7570294 42.4958207,25.0453465 42.83704,25.1908275 C43.1809044,25.3389537 43.5697357,25.3257282 43.9003745,25.1564411 C44.6886176,24.7596745 45.5006666,24.5586461 46.3153607,24.5586461 C49.2964005,24.5586461 51.7219671,26.9815675 51.7219671,29.9652525 C51.7219671,32.9436472 49.2964005,35.3692138 46.3153607,35.3692138 C45.6196966,35.3692138 45.056288,35.9326224 45.056288,36.6282865 C45.056288,37.3239507 45.6196966,37.8873593 46.3153607,37.8873593 C50.6850837,37.8873593 54.2401126,34.3323304 54.2401126,29.9652525 C54.2401126,25.5955295 50.6850837,22.0405006 46.3153607,22.0405006 C45.5429883,22.0405006 44.7785513,22.1595306 44.029985,22.3949455 C42.7021394,19.7445445 40.0147068,18.0410931 36.986055,18.0410931 C36.0364602,18.0410931 35.1291872,18.2183155 34.2853969,18.5251484 C32.3650464,16.2186118 29.5427132,14.8934113 26.5431576,14.8934113 C22.5225892,14.8934113 19.054849,17.2687208 17.4413314,20.6809137 C16.3621262,20.2444704 15.2485346,20.0117006 14.1217174,20.0117006 C10.7386207,20.0117006 7.65706668,21.8738586 6.08058065,24.868124 C5.98006645,25.0559269 5.93509956,25.2569553 5.93509956,25.4526935 C5.93509956,25.9050075 6.17844975,26.3440958 6.6069577,26.5689303" id="Fill-2" fill="#3E44A9"></path>
                    <path d="M23.520325,58.9564601 L38.6265527,58.9564601 L38.6265527,43.8502325 L23.520325,43.8502325 L23.520325,58.9564601 Z M9.89271431,57.6973874 C9.19705017,57.6973874 8.63364158,57.1313337 8.63364158,56.4383147 C8.63364158,55.7452957 9.19705017,55.179242 9.89271431,55.179242 C10.5857333,55.179242 11.151787,55.7452957 11.151787,56.4383147 C11.151787,57.1313337 10.5857333,57.6973874 9.89271431,57.6973874 L9.89271431,57.6973874 Z M54.0501936,36.0127693 C53.8941321,36.6872725 54.3173498,37.3644209 54.9944982,37.5231275 C56.7429164,37.9278295 57.9649576,39.4672839 57.9649576,41.2659593 C57.9649576,43.384693 56.2403453,45.1093052 54.1216116,45.1093052 L46.1809891,45.1093052 L45.3610047,45.1093052 L41.1446981,45.1093052 L41.1446981,41.332087 L32.331189,41.332087 L32.331189,36.2957961 C32.331189,35.600132 31.7677804,35.0367234 31.0721163,35.0367234 C30.3764522,35.0367234 29.8130436,35.600132 29.8130436,36.2957961 L29.8130436,41.332087 L21.0021796,41.332087 L21.0021796,45.1093052 L15.9658887,45.1093052 L7.55443638,45.1093052 C4.77707006,45.1093052 2.51814546,42.8477355 2.51814546,40.0730143 C2.51814546,37.295648 4.77707006,35.0367234 7.55443638,35.0367234 C8.25010051,35.0367234 8.81350911,34.4733148 8.81350911,33.7776507 C8.81350911,33.0819865 8.25010051,32.5185779 7.55443638,32.5185779 C3.38838691,32.5185779 0,35.9069648 0,40.0730143 C0,44.2364187 3.38838691,47.6248056 7.55443638,47.6248056 L15.9658887,47.6248056 L21.0021796,47.6248056 L21.0021796,50.142951 L15.9658887,50.142951 C15.2702245,50.142951 14.7068159,50.7063596 14.7068159,51.4020238 C14.7068159,52.0976879 15.2702245,52.6610965 15.9658887,52.6610965 L21.0021796,52.6610965 L21.0021796,55.179242 L13.4371627,55.179242 C12.9160759,53.7164957 11.5300379,52.6610965 9.89271431,52.6610965 C7.80836701,52.6610965 6.11549612,54.3566125 6.11549612,56.4383147 C6.11549612,58.5200169 7.80836701,60.2155329 9.89271431,60.2155329 C11.5300379,60.2155329 12.9160759,59.1601337 13.4371627,57.6973874 L21.0021796,57.6973874 L21.0021796,61.4746056 L24.7767527,61.4746056 L24.7767527,66.5108965 C24.7767527,67.2065607 25.3401612,67.7699693 26.0358254,67.7699693 C26.7314895,67.7699693 27.2948981,67.2065607 27.2948981,66.5108965 L27.2948981,61.4746056 L29.8130436,61.4746056 L29.8130436,66.5108965 C29.8130436,67.2065607 30.3764522,67.7699693 31.0721163,67.7699693 C31.7677804,67.7699693 32.331189,67.2065607 32.331189,66.5108965 L32.331189,61.4746056 L34.8493345,61.4746056 L34.8493345,69.4575499 C34.8493345,70.1532141 35.4127431,70.7166227 36.1084072,70.7166227 C36.8040714,70.7166227 37.36748,70.1532141 37.36748,69.4575499 L37.36748,61.4746056 L41.1446981,61.4746056 L41.1446981,57.6973874 L49.6936962,57.6973874 C50.3920054,57.6973874 50.9527689,57.1339788 50.9527689,56.4383147 C50.9527689,55.7426506 50.3920054,55.179242 49.6936962,55.179242 L41.1446981,55.179242 L41.1446981,52.6610965 L46.1809891,52.6610965 C46.8766532,52.6610965 47.4400618,52.0976879 47.4400618,51.4020238 C47.4400618,50.7063596 46.8766532,50.142951 46.1809891,50.142951 L41.1446981,50.142951 L41.1446981,47.6248056 L45.3610047,47.6248056 L46.1809891,47.6248056 L54.1216116,47.6248056 C57.6290285,47.6248056 60.483103,44.7733762 60.483103,41.2659593 C60.483103,38.2875645 58.4569482,35.7403229 55.5605519,35.0684647 C54.8834035,34.9124032 54.2089003,35.3329758 54.0501936,36.0127693 Z" id="Fill-4" fill="#3E44A9"></path>
                    <path d="M34.0444273,28.6892511 C34.0444273,29.3849152 34.6078359,29.9483238 35.3035,29.9483238 C35.9991641,29.9483238 36.5625727,29.3849152 36.5625727,28.6892511 C36.5625727,27.9935869 35.9991641,27.4301783 35.3035,27.4301783 C34.6078359,27.4301783 34.0444273,27.9935869 34.0444273,28.6892511" id="Fill-6" fill="#3F4898"></path>
                    <path d="M5.71820048,30.9450015 C6.41386461,30.9450015 6.97727321,30.3815929 6.97727321,29.6859288 C6.97727321,28.9902647 6.41386461,28.4268561 5.71820048,28.4268561 C5.02253634,28.4268561 4.45912775,28.9902647 4.45912775,29.6859288 C4.45912775,30.3815929 5.02253634,30.9450015 5.71820048,30.9450015" id="Fill-7" fill="#3F4898"></path>
                    <path d="M15.1858455,64.3080483 C15.7280932,63.8583794 15.8048014,63.0569109 15.3577777,62.5120181 C14.910754,61.9671252 14.1039952,61.8851268 13.5591024,62.3295054 C13.4189115,62.4406001 10.1098779,65.0433891 6.15014707,62.271313 C5.92795776,62.1152514 5.67138202,62.0385432 5.41745138,62.0385432 C5.01274943,62.0385432 4.61598282,62.2289912 4.3673424,62.5860812 C3.95999534,63.1653604 4.10283133,63.9641839 4.68211059,64.3715309 C9.14970269,67.4980519 13.5062001,65.6967314 15.1858455,64.3080483" id="Fill-8" fill="#0979FE"></path>
                    <path d="M17.1104281,67.0073838 C16.8723681,67.1713807 11.1695093,70.9776951 2.48825571,66.8989343 C2.31103329,66.8169358 2.12587553,66.7772592 1.94336289,66.7772592 C1.46195273,66.7772592 1.00170345,67.0497056 0.782159257,67.5152451 C0.483261739,68.1553619 0.75835326,68.9197989 1.39847007,69.2186964 C11.4789872,73.9560898 18.2927926,69.3086302 18.5784646,69.1076018 C19.1550987,68.7028998 19.2926445,67.9093666 18.8905876,67.3300873 C18.4885308,66.7508081 17.6897073,66.6079721 17.1104281,67.0073838" id="Fill-9" fill="#0979FE"></path>
                    <path d="M70.6244578,57.2784019 L71.87295,57.2784019 L71.87295,68.0149065 L78.4910172,68.0149065 L78.4910172,69.0941117 L70.6244578,69.0941117 L70.6244578,57.2784019 Z M90.0832152,64.9243591 L87.2476564,58.5787383 L84.4094526,64.9243591 L90.0832152,64.9243591 Z M90.5381742,65.9374365 L83.9571386,65.9374365 L82.5367141,69.0930537 L81.2379647,69.0930537 L86.639281,57.2773438 L87.8719026,57.2773438 L93.2732188,69.0930537 L91.9559536,69.0930537 L90.5381742,65.9374365 Z M105.576687,67.5229159 C106.11629,67.1631808 106.388736,66.5997723 106.388736,65.8353352 C106.388736,64.3620085 105.317466,63.6240226 103.180217,63.6240226 L99.0115221,63.6240226 L99.0115221,68.0625185 L103.180217,68.0625185 C104.238261,68.0625185 105.037084,67.8852961 105.576687,67.5229159 L105.576687,67.5229159 Z M99.0115221,58.3099951 L99.0115221,62.5977196 L102.77287,62.5977196 C103.733045,62.5977196 104.468386,62.4125619 104.984182,62.0475366 C105.505269,61.6825113 105.761845,61.1508441 105.761845,60.4525348 C105.761845,59.7542256 105.505269,59.2225583 104.984182,58.857533 C104.468386,58.4925077 103.733045,58.3099951 102.77287,58.3099951 L99.0115221,58.3099951 Z M107.002402,64.0049186 C107.422974,64.5048445 107.634583,65.1502515 107.634583,65.9358494 C107.634583,66.9489269 107.261623,67.7292346 106.513056,68.2741274 C105.76449,68.8190202 104.658834,69.0941117 103.198732,69.0941117 L97.7630298,69.0941117 L97.7630298,57.2784019 L102.860158,57.2784019 C104.177423,57.2784019 105.195791,57.5455581 105.923197,58.0719351 C106.647957,58.6009573 107.010337,59.3495236 107.010337,60.314989 C107.010337,60.9683314 106.848985,61.5238047 106.528927,61.9787637 C106.208869,62.4337228 105.767135,62.7749421 105.203726,62.9997765 C105.981389,63.1690636 106.581829,63.5023475 107.002402,64.0049186 L107.002402,64.0049186 Z M120.713862,67.4480593 C121.467719,67.0274867 122.060224,66.4402721 122.486087,65.6917057 C122.914595,64.9457845 123.128849,64.1072844 123.128849,63.1867858 C123.128849,62.2636422 122.914595,61.4304323 122.486087,60.6792208 C122.060224,59.9306544 121.467719,59.346085 120.713862,58.9228672 C119.960006,58.5022946 119.116216,58.2906858 118.182491,58.2906858 C117.248767,58.2906858 116.402332,58.5022946 115.643185,58.9228672 C114.884038,59.346085 114.286243,59.9306544 113.852445,60.6792208 C113.421292,61.4304323 113.204393,62.2636422 113.204393,63.1867858 C113.204393,64.1072844 113.421292,64.9457845 113.852445,65.6917057 C114.286243,66.4402721 114.884038,67.0274867 115.643185,67.4480593 C116.402332,67.8686319 117.248767,68.0802408 118.182491,68.0802408 C119.116216,68.0802408 119.960006,67.8686319 120.713862,67.4480593 M115.003068,68.4082345 C114.048183,67.8871477 113.307552,67.1703226 112.77324,66.2577594 C112.238928,65.3478413 111.971771,64.3215383 111.971771,63.1867858 C111.971771,62.0493882 112.238928,61.0257303 112.77324,60.1158122 C113.307552,59.203249 114.048183,58.486424 115.003068,57.962692 C115.952663,57.4389601 117.013353,57.1770941 118.182491,57.1770941 C119.35163,57.1770941 120.40703,57.436315 121.346044,57.9547567 C122.287703,58.4705533 123.025689,59.1900234 123.565292,60.1078769 C124.10754,61.0230852 124.377341,62.0493882 124.377341,63.1867858 C124.377341,64.3215383 124.10754,65.3504864 123.565292,66.2683399 C123.025689,67.1835482 122.287703,67.9003732 121.346044,68.4188149 C120.40703,68.9346115 119.35163,69.1938324 118.182491,69.1938324 C117.013353,69.1938324 115.952663,68.9346115 115.003068,68.4082345 M136.780794,63.5063152 C137.39975,62.9905186 137.711873,62.2631131 137.711873,61.329389 C137.711873,60.3718589 137.39975,59.6391632 136.780794,59.1286569 C136.164484,58.6155054 135.270436,58.3615747 134.098652,58.3615747 L130.958906,58.3615747 L130.958906,64.2839778 L134.098652,64.2839778 C135.270436,64.2839778 136.164484,64.0247569 136.780794,63.5063152 L136.780794,63.5063152 Z M137.778001,69.0927892 L135.077343,65.2970552 C134.773155,65.3287965 134.458387,65.3473123 134.133038,65.3473123 L130.958906,65.3473123 L130.958906,69.0927892 L129.710413,69.0927892 L129.710413,57.2797244 L134.133038,57.2797244 C135.638107,57.2797244 136.823116,57.6394595 137.677487,58.3615747 C138.531858,59.0783998 138.957721,60.0703163 138.957721,61.329389 C138.957721,62.2525327 138.724951,63.0301953 138.259411,63.667667 C137.791227,64.3051387 137.124659,64.7627428 136.259708,65.0431246 L139.145523,69.0927892 L137.778001,69.0927892 Z M151.39847,64.9243591 L148.562911,58.5787383 L145.724707,64.9243591 L151.39847,64.9243591 Z M151.853429,65.9374365 L145.272394,65.9374365 L143.851969,69.0930537 L142.55322,69.0930537 L147.954536,57.2773438 L149.187157,57.2773438 L154.588474,69.0930537 L153.271208,69.0930537 L151.853429,65.9374365 Z M160.780413,58.3605167 L156.630235,58.3605167 L156.630235,57.2786664 L166.18173,57.2786664 L166.18173,58.3605167 L162.031551,58.3605167 L162.031551,69.0943762 L160.780413,69.0943762 L160.780413,58.3605167 Z M178.232061,67.4480593 C178.985917,67.0274867 179.578422,66.4402721 180.004285,65.6917057 C180.432793,64.9457845 180.647047,64.1072844 180.647047,63.1867858 C180.647047,62.2636422 180.432793,61.4304323 180.004285,60.6792208 C179.578422,59.9306544 178.985917,59.346085 178.232061,58.9228672 C177.478204,58.5022946 176.634414,58.2906858 175.70069,58.2906858 C174.766966,58.2906858 173.92053,58.5022946 173.161383,58.9228672 C172.402237,59.346085 171.804442,59.9306544 171.370644,60.6792208 C170.93949,61.4304323 170.722591,62.2636422 170.722591,63.1867858 C170.722591,64.1072844 170.93949,64.9457845 171.370644,65.6917057 C171.804442,66.4402721 172.402237,67.0274867 173.161383,67.4480593 C173.92053,67.8686319 174.766966,68.0802408 175.70069,68.0802408 C176.634414,68.0802408 177.478204,67.8686319 178.232061,67.4480593 M172.521267,68.4082345 C171.566382,67.8871477 170.825751,67.1703226 170.291438,66.2577594 C169.757126,65.3478413 169.48997,64.3215383 169.48997,63.1867858 C169.48997,62.0493882 169.757126,61.0257303 170.291438,60.1158122 C170.825751,59.203249 171.566382,58.486424 172.521267,57.962692 C173.470861,57.4389601 174.531551,57.1770941 175.70069,57.1770941 C176.869829,57.1770941 177.925228,57.436315 178.864242,57.9547567 C179.805902,58.4705533 180.543888,59.1900234 181.08349,60.1078769 C181.625738,61.0230852 181.895539,62.0493882 181.895539,63.1867858 C181.895539,64.3215383 181.625738,65.3504864 181.08349,66.2683399 C180.543888,67.1835482 179.805902,67.9003732 178.864242,68.4188149 C177.925228,68.9346115 176.869829,69.1938324 175.70069,69.1938324 C174.531551,69.1938324 173.470861,68.9346115 172.521267,68.4082345 M194.298993,63.5063152 C194.917949,62.9905186 195.230072,62.2631131 195.230072,61.329389 C195.230072,60.3718589 194.917949,59.6391632 194.298993,59.1286569 C193.682682,58.6155054 192.788634,58.3615747 191.61685,58.3615747 L188.477104,58.3615747 L188.477104,64.2839778 L191.61685,64.2839778 C192.788634,64.2839778 193.682682,64.0247569 194.298993,63.5063152 L194.298993,63.5063152 Z M195.2962,69.0927892 L192.595541,65.2970552 C192.291354,65.3287965 191.976585,65.3473123 191.651237,65.3473123 L188.477104,65.3473123 L188.477104,69.0927892 L187.228612,69.0927892 L187.228612,57.2797244 L191.651237,57.2797244 C193.156305,57.2797244 194.341315,57.6394595 195.195685,58.3615747 C196.050056,59.0783998 196.475919,60.0703163 196.475919,61.329389 C196.475919,62.2525327 196.243149,63.0301953 195.77761,63.667667 C195.309425,64.3051387 194.642857,64.7627428 193.777906,65.0431246 L196.663722,69.0927892 L195.2962,69.0927892 Z M205.848075,65.0095317 L205.848075,69.0935827 L204.615454,69.0935827 L204.615454,65.0095317 L199.891286,57.2778729 L201.224422,57.2778729 L205.274086,63.9118107 L209.323751,57.2778729 L210.572243,57.2778729 L205.848075,65.0095317 Z" id="Combined-Shape" fill="#31368B"></path>
                    <path d="M218.225607,6.92025387 C218.759919,7.36198737 218.833982,8.15023039 218.394894,8.68718787 C217.955805,9.22414536 217.162272,9.30349868 216.625315,8.86705541 C216.487769,8.75860586 213.231638,6.19549352 209.335389,8.92524784 C209.115845,9.07866427 208.861915,9.15272737 208.613274,9.15272737 C208.213862,9.15272737 207.825031,8.9649245 207.579036,8.61576988 C207.179624,8.04442595 207.31717,7.25882805 207.888514,6.85941633 C212.284688,3.78050738 216.572413,5.5527316 218.225607,6.92025387" id="Fill-20" fill="#0979FE"></path>
                    <path d="M221.872157,3.94635583 C221.47539,4.51505464 220.689792,4.65789063 220.118448,4.26376912 C219.883033,4.10241736 214.272753,0.356940502 205.729045,4.36957355 C205.557113,4.45157199 205.374601,4.48860354 205.194733,4.48860354 C204.721258,4.48860354 204.266299,4.22144735 204.052045,3.76384318 C203.755793,3.13430682 204.028239,2.38309536 204.657776,2.08684295 C214.579586,-2.57384224 221.284942,1.99955429 221.562679,2.19529249 C222.131377,2.59470422 222.268923,3.3750119 221.872157,3.94635583" id="Fill-21" fill="#0979FE"></path>
                    <path d="M214.368242,14.9095465 C214.368242,14.1636252 213.762511,13.5578949 213.01659,13.5578949 C212.270669,13.5578949 211.662293,14.1636252 211.662293,14.9095465 C211.662293,15.6554677 212.270669,16.2611981 213.01659,16.2611981 C213.762511,16.2611981 214.368242,15.6554677 214.368242,14.9095465 M208.95899,14.9095465 C208.95899,12.6717827 210.778826,10.8519465 213.01659,10.8519465 C215.254354,10.8519465 217.07419,12.6717827 217.07419,14.9095465 C217.07419,17.1473102 215.254354,18.9671464 213.01659,18.9671464 C210.778826,18.9671464 208.95899,17.1473102 208.95899,14.9095465" id="Fill-22" fill="#3F4898"></path>
                    <path d="M70.9215037,48.6352379 L70.9215037,24.4218938 C70.9215037,23.8902266 71.096081,23.4405577 71.4478807,23.0755325 C71.7996805,22.7131523 72.2281884,22.5306396 72.7386948,22.5306396 L80.6766722,22.5306396 C81.1845335,22.5306396 81.6659437,22.7131523 82.1209027,23.0755325 C82.5758618,23.4405577 82.8800495,23.877001 83.0387562,24.3848623 L88.7945172,41.04377 L94.5502783,24.3848623 C94.7036947,23.877001 95.0105275,23.4405577 95.4654866,23.0755325 C95.9204456,22.7131523 96.4018558,22.5306396 96.9097171,22.5306396 L104.85034,22.5306396 C105.358201,22.5306396 105.784064,22.7131523 106.130573,23.0755325 C106.471793,23.4405577 106.64637,23.8902266 106.64637,24.4218938 L106.64637,48.6352379 C106.64637,49.1695503 106.466502,49.6139289 106.109412,49.973664 C105.752322,50.3307539 105.318524,50.5079763 104.813308,50.5079763 L101.297956,50.5079763 C100.79274,50.5079763 100.358942,50.3307539 100.001852,49.973664 C99.6421165,49.6139289 99.4648941,49.1695503 99.4648941,48.6352379 L99.4648941,29.5719245 L92.5796707,48.7516228 C92.394513,49.2330329 92.0770997,49.6456702 91.6221406,49.9921797 C91.1671816,50.3386892 90.6857714,50.5079763 90.1779102,50.5079763 L87.3899634,50.5079763 C86.8821021,50.5079763 86.4033371,50.3386892 85.9563134,49.9921797 C85.5066445,49.6456702 85.183941,49.2330329 84.9882028,48.7516228 L78.1214952,29.5719245 L78.1214952,48.6352379 C78.1214952,49.1695503 77.9416277,49.6139289 77.5845377,49.973664 C77.2274478,50.3307539 76.7962947,50.5079763 76.2857883,50.5079763 L72.7757263,50.5079763 C72.2678651,50.5079763 71.8314218,50.3307539 71.4690416,49.973664 C71.1040163,49.6139289 70.9215037,49.1695503 70.9215037,48.6352379 M113.041983,48.6352379 L113.041983,24.3451856 C113.041983,23.8373244 113.224496,23.4088164 113.589521,23.0570167 C113.951901,22.7052169 114.388345,22.5306396 114.896206,22.5306396 L137.390228,22.5306396 C137.898089,22.5306396 138.331887,22.7131523 138.688977,23.0755325 C139.046067,23.4405577 139.22329,23.877001 139.22329,24.3848623 L139.22329,26.2179241 C139.22329,26.7257853 139.046067,27.1569384 138.688977,27.5140283 C138.331887,27.8711183 137.898089,28.0509858 137.390228,28.0509858 L120.398036,28.0509858 L120.398036,33.7300387 L135.030789,33.7300387 C135.53865,33.7300387 135.969803,33.9072611 136.329538,34.264351 C136.683983,34.6240861 136.863851,35.0552392 136.863851,35.5631004 L136.863851,37.3961622 C136.863851,37.9040235 136.683983,38.3351765 136.329538,38.6949116 C135.969803,39.0520016 135.53865,39.2318691 135.030789,39.2318691 L120.398036,39.2318691 L120.398036,44.9876301 L137.350551,44.9876301 C137.847832,44.9876301 138.268405,45.1622074 138.620204,45.5140072 C138.972004,45.8658069 139.146581,46.2943149 139.146581,46.8021761 L139.146581,48.6749146 C139.146581,49.1827758 138.966714,49.6139289 138.601689,49.973664 C138.236663,50.3307539 137.80022,50.5079763 137.295004,50.5079763 L114.896206,50.5079763 C114.388345,50.5079763 113.951901,50.3307539 113.589521,49.973664 C113.224496,49.6139289 113.041983,49.1695503 113.041983,48.6352379 M143.615761,48.6738565 L143.615761,24.3838042 C143.615761,23.875943 143.790338,23.4394997 144.142138,23.0771195 C144.493937,22.7120942 144.922445,22.5295816 145.432952,22.5295816 L151.164907,22.5295816 C151.619866,22.5295816 152.103921,22.7120942 152.609137,23.0771195 C153.116999,23.4394997 153.534926,23.875943 153.85763,24.3838042 L165.644243,42.5081033 L165.644243,24.3441276 C165.644243,23.8362663 165.824111,23.4077584 166.178556,23.0559586 C166.538291,22.706804 166.969444,22.5295816 167.477305,22.5295816 L170.833951,22.5295816 C171.339167,22.5295816 171.772965,22.706804 172.130055,23.0559586 C172.487145,23.4077584 172.667012,23.8494919 172.667012,24.3838042 L172.667012,48.6738565 C172.667012,49.1817178 172.487145,49.6128708 172.130055,49.9726059 C171.772965,50.3296959 171.339167,50.5069183 170.833951,50.5069183 L164.356074,50.5069183 C163.848213,50.5069183 163.327126,50.3296959 162.795459,49.9726059 C162.261146,49.6128708 161.840574,49.1817178 161.525806,48.6738565 L150.736399,31.9329504 L150.736399,48.6738565 C150.736399,49.1817178 150.559176,49.6128708 150.199441,49.9726059 C149.842351,50.3296959 149.408553,50.5069183 148.903337,50.5069183 L145.469983,50.5069183 C144.962122,50.5069183 144.525679,50.3296959 144.163299,49.9726059 C143.798273,49.6128708 143.615761,49.1817178 143.615761,48.6738565 M176.664039,26.2176595 L176.664039,24.3845978 C176.664039,23.8502854 176.838617,23.4085519 177.190416,23.0567522 C177.542216,22.7049524 177.983949,22.5303751 178.518262,22.5303751 L203.276499,22.5303751 C203.810811,22.5303751 204.252545,22.7049524 204.604344,23.0567522 C204.953499,23.4085519 205.130721,23.8502854 205.130721,24.3845978 L205.130721,26.2176595 C205.130721,26.7519719 204.953499,27.1910603 204.604344,27.5349247 C204.252545,27.8787891 203.810811,28.0507213 203.276499,28.0507213 L194.574084,28.0507213 L194.574084,48.7116816 C194.574084,49.2195429 194.396862,49.6454057 194.037127,49.9919152 C193.682682,50.3384247 193.248884,50.5077118 192.741022,50.5077118 L189.053738,50.5077118 C188.545877,50.5077118 188.112079,50.3384247 187.754989,49.9919152 C187.397899,49.6454057 187.218031,49.2195429 187.218031,48.7116816 L187.218031,28.0507213 L178.518262,28.0507213 C177.983949,28.0507213 177.542216,27.8787891 177.190416,27.5349247 C176.838617,27.1910603 176.664039,26.7519719 176.664039,26.2176595 M209.10791,48.7127396 L209.10791,24.3830107 C209.10791,23.8751494 209.290423,23.4413513 209.655448,23.076326 C210.017828,22.7113007 210.454271,22.5314332 210.962133,22.5314332 L214.591225,22.5314332 C215.122892,22.5314332 215.56727,22.7113007 215.927006,23.076326 C216.284095,23.4413513 216.463963,23.8751494 216.463963,24.3830107 L216.463963,48.673063 C216.463963,49.1809243 216.278805,49.6147224 215.905845,49.9744575 C215.538174,50.3289023 215.099086,50.5087699 214.591225,50.5087699 L210.962133,50.5087699 C210.454271,50.5087699 210.017828,50.3368377 209.655448,49.9903281 C209.290423,49.6464637 209.10791,49.2206009 209.10791,48.7127396 M221.264046,43.3476615 C221.264046,42.5805793 221.491525,42.0303963 221.946484,41.6997574 C222.401443,41.3664735 222.845822,41.1998315 223.27433,41.1998315 L225.596737,41.1998315 C226.765876,41.1998315 227.657278,41.8399483 228.265654,43.1148917 C228.879319,44.3898351 230.249487,45.0246617 232.384091,45.0246617 L239.213767,45.1622074 C241.501788,45.1622074 242.647121,44.4136411 242.647121,42.9191535 C242.647121,41.7870461 241.250503,40.8956438 238.451975,40.2449465 C237.203483,39.946049 235.82538,39.6497966 234.317667,39.3588344 C232.807309,39.0652271 231.307531,38.6975567 229.818334,38.2558232 C228.329136,37.8140897 226.958969,37.2930029 225.713122,36.6952078 C224.461984,36.0974128 223.451552,35.2747834 222.676535,34.2273195 C221.904162,33.1798556 221.517976,31.947234 221.517976,30.5294546 C221.517976,27.9160852 222.44641,25.9031559 224.305923,24.4906667 C226.168081,23.0781776 229.36602,22.3745781 233.90503,22.3745781 L238.861968,22.490963 C241.528239,22.490963 243.93,23.1786918 246.069894,24.5488592 C248.212434,25.9216717 249.281059,27.6357034 249.281059,29.6909545 C249.281059,30.4580366 249.053579,31.0108648 248.59862,31.349439 C248.141016,31.6880131 247.707218,31.8546551 247.291936,31.8546551 L244.969528,31.8546551 C243.800389,31.8546551 242.908987,31.2171834 242.295321,29.9343047 C241.684301,28.6540711 240.311488,28.0139543 238.179529,28.0139543 L232.307383,27.8949243 C230.016717,27.8949243 228.871384,28.6434906 228.871384,30.1379782 C228.871384,30.9579626 229.596144,31.6271756 231.04831,32.1482624 C232.497831,32.6693492 234.254185,33.1269534 236.314726,33.52372 C238.377912,33.9204866 240.449034,34.3992517 242.530736,34.9573701 C244.609793,35.5181336 246.376727,36.4386321 247.826248,37.7188657 C249.278414,38.9990993 250.000529,40.5967462 250.000529,42.5091613 C250.000529,45.1225308 249.06945,47.1354601 247.204647,48.5479492 C245.337199,49.9604384 242.141905,50.666683 237.613475,50.666683 L231.701653,50.547653 C229.035381,50.547653 226.62833,49.8625693 224.483145,48.4897568 C222.335315,47.1169443 221.264046,45.4029125 221.264046,43.3476615" id="Combined-Shape" fill="#3E44A9"></path>
                </g>
            </g>
        </g>
    </g>
</svg>