<?xml version="1.0" encoding="UTF-8"?>
<svg width="30px" height="22px" viewBox="0 0 30 22" version="1.1" xmlns="http://www.w3.org/2000/svg" xmlns:xlink="http://www.w3.org/1999/xlink">
    <title>28AB2E2C-292C-43C7-8AE1-74DC4D738395</title>
    <g id="Page-1" stroke="none" stroke-width="1" fill="none" fill-rule="evenodd">
        <g id="Index" transform="translate(-682, -1624)" stroke="#0074FF" stroke-width="2">
            <g id="Group-12-Copy-2" transform="translate(682, 1624)">
                <g id="Group-4">
                    <path d="M0,18 L26,18 L26,0 L0,0 L0,18 Z" id="Stroke-1" stroke-dasharray="49,2,2,2,2,2"></path>
                    <polyline id="Stroke-3" points="26 4 30 4 30 22 4 22 4 18"></polyline>
                </g>
                <line x1="17" y1="7" x2="23" y2="7" id="Stroke-5"></line>
                <line x1="23" y1="11" x2="17" y2="11" id="Stroke-6" stroke-dasharray="2,2,500,2"></line>
                <g id="Group-11" transform="translate(4, 4)">
                    <path d="M8,3 C8,4.657 6.657,6 5,6 C3.343,6 2,4.657 2,3 C2,1.343 3.343,0 5,0 C6.657,0 8,1.343 8,3 Z" id="Stroke-7"></path>
                    <path d="M10,14 L10,11 C10,8.239 7.761,6 5,6 C2.239,6 0,8.239 0,11 L0,14" id="Stroke-9"></path>
                </g>
            </g>
        </g>
    </g>
</svg>