<?xml version="1.0" encoding="UTF-8"?>
<svg width="165.002771px" height="51.7686777px" viewBox="0 0 165.002771 51.7686777" version="1.1" xmlns="http://www.w3.org/2000/svg" xmlns:xlink="http://www.w3.org/1999/xlink">
    <title>9DC02D0A-0E44-4DA3-81C6-7DA1E2AEEACE</title>
    <g id="Page-1" stroke="none" stroke-width="1" fill="none" fill-rule="evenodd">
        <g id="Index" transform="translate(-1407, -23)" fill-rule="nonzero">
            <g id="Northeastern_Wordmark" transform="translate(1407, 23)">
                <g id="Shape" transform="translate(82.5014, 25.8843) scale(-1, 1) rotate(-180) translate(-82.5014, -25.8843)">
                    <path d="M0,51.7686777 L0,50.474173 C3.0263748,50.1506601 4.82891187,49.3096019 9.2070951,45.0401372 L10.8809442,43.4226857 L10.8809442,31.8385067 L12.3618181,31.8385067 L12.3618181,42.1935631 L53.8258331,2.92279215 L55.1131654,2.92279215 L55.1131654,37.9867624 C55.1131654,45.8794211 57.7531744,48.4675246 63.0326262,50.4727763 L63.0326262,51.767281 L45.7131705,51.767281 L45.7131705,50.4727763 C50.9924336,48.4675246 53.6322538,45.8794211 53.6322538,37.9867624 L53.6322538,14.8267092 L16.9975282,50.0201602 C15.3237168,51.5731732 14.8734034,51.7675453 13.7786688,51.7675453 L0,51.7686777 Z M10.8680717,16.1486578 C10.6740394,8.940397 8.03973057,6.47044935 2.96182321,4.54182906 L2.96182321,3.24789056 L20.2809014,3.24789056 L20.2809014,4.54182906 C15.2032205,6.47044935 12.5690627,8.940397 12.3750304,16.1486578 L10.8680717,16.1486578 Z" fill="#C8102E"></path>
                    <path d="M105.724556,34.8229418 L105.127888,34.8218093 L102.534462,33.1236496 L102.534839,32.7686422 L103.712094,32.7712847 L103.728138,23.7552019 C103.729647,22.8680894 103.585256,22.6418191 102.666434,22.5115834 L102.666811,22.011705 L106.811325,22.0188925 L106.810948,22.5187709 C105.891748,22.6459867 105.746149,22.8719738 105.744261,23.7590674 L105.737617,27.5004549 C106.510349,28.2116549 107.106375,28.5674814 107.783601,28.5682363 C108.574074,28.5697463 108.800647,28.1673748 108.802157,27.44183 L108.808234,23.7640126 C108.809744,22.8769001 108.664798,22.6513848 107.745964,22.5203942 L107.747474,22.0205157 L111.891611,22.0277032 L111.890478,22.5275817 C110.971279,22.6547974 110.825868,22.8807846 110.824358,23.7678782 L110.817714,27.6224763 C110.815072,28.9127531 110.265515,29.8313109 108.636248,29.8282909 C107.652497,29.8267809 106.685695,29.2441179 105.735918,28.4359018 L105.724556,34.8229418 Z M79.7287626,34.0670465 L75.8258452,34.0604026 L75.8269777,33.5605241 C76.7465547,33.3038278 77.2795394,32.8211631 77.2829369,30.9344824 L77.2929027,25.256585 L69.052949,33.5482556 C68.6007104,33.9989842 68.4230991,34.047228 68.1328057,34.046473 L65.0848382,34.0414901 L65.0859707,33.5410454 C65.7469639,33.4780038 66.1344999,33.220896 66.8936417,32.4964799 C67.1359933,32.2711156 67.3625278,31.9972432 67.3636603,31.5453821 L67.3747209,25.0777658 C67.3781184,23.1906699 66.8464171,22.70608 65.9275951,22.4467412 L65.9287276,21.9462965 L69.831645,21.9529329 L69.8305125,22.4528113 C68.9109355,22.7095077 68.3783283,23.1923234 68.3745533,25.0794192 L68.364059,31.1759582 L77.6379706,21.8865693 L78.298775,21.887664 L78.2827315,30.9354564 C78.2793341,32.8225522 78.8106578,33.3073309 79.7298574,33.5670472 L79.7287626,34.0670465 Z M138.633032,31.2203592 L138.342723,31.2192267 L135.44296,29.3109156 L135.443337,28.7949936 L136.621159,28.7966546 L136.630558,23.523054 C136.632068,22.4747513 137.229869,21.9116425 138.407237,21.9139007 C139.326436,21.9154174 140.228837,22.2235777 141.002324,22.8052856 L140.759569,23.3206414 C140.324695,23.1266091 139.936932,23.0294269 139.598319,23.0286719 C138.84031,23.0275394 138.646316,23.4141694 138.645561,23.9460594 L138.637256,28.8006409 L140.685466,28.8045103 L140.683201,29.7235588 L138.634991,29.7202368 L138.633032,31.2203592 Z M99.8152542,31.1512399 L99.5254969,31.1508624 L96.6257338,29.2431175 L96.6268663,28.7266293 L97.8041211,28.7288566 L97.8135208,23.454501 C97.8150307,22.4058208 98.4124538,21.8429007 99.5901994,21.8447835 C100.509399,21.8466757 101.412177,22.1540809 102.185287,22.7361664 L101.94198,23.2520883 C101.507106,23.0576786 101.120476,22.9603227 100.781863,22.9595677 C100.023854,22.9580577 99.8291423,23.3452163 99.8280098,23.8774838 L99.8197049,28.7320653 L101.868444,28.7359346 L101.866934,29.6549831 L99.8187234,29.6516612 L99.8152542,31.1512399 Z M12.7385578,30.3062935 C12.6347467,30.3055386 12.5830262,30.3053876 12.4792152,30.3046326 C12.3444496,30.3035001 12.2876404,30.2613679 12.243096,30.1254698 C12.0218841,29.4701391 11.9088094,29.1427379 11.6774202,28.4870297 C11.4411086,29.1393405 11.3258595,29.4652694 11.1001176,30.1172027 C11.0544408,30.2527233 10.997658,30.2932511 10.8628924,30.2924961 C10.7447366,30.2913636 10.6857606,30.2910239 10.5676048,30.2902689 C10.4751186,30.2895139 10.4171279,30.2067595 10.4514799,30.1127634 C10.7746153,29.1946963 10.9418077,28.7354363 11.2864603,27.8173692 C11.3377996,27.6822261 11.3963528,27.6409433 11.5364033,27.6420533 C11.633797,27.6428308 11.6823164,27.6433593 11.77971,27.6437368 C11.9197605,27.6448693 11.9785138,27.686624 12.0290981,27.8228995 C12.3703532,28.745874 12.5352807,29.2069083 12.8557736,30.1298827 C12.8889932,30.2242564 12.8310289,30.3070334 12.7385427,30.3062935 L12.7385578,30.3062935 Z M13.6482067,30.2836212 C13.5704428,30.2873962 13.5220782,30.2035055 13.5636026,30.1298941 C13.8236964,29.6753905 13.9560083,29.4482142 14.224407,28.9940881 C13.9186363,28.5225972 13.7634483,28.2866631 13.4474852,27.8151722 C13.4018084,27.7460907 13.44707,27.6573039 13.52822,27.6531515 C13.6637406,27.6467341 13.7316708,27.6439104 13.8671913,27.6371155 C14.0181892,27.6299431 14.0708648,27.6573417 14.1497612,27.7853124 C14.3381311,28.0850432 14.4311457,28.2348708 14.6153631,28.5346016 C14.7954281,28.2171286 14.8858909,28.0580145 15.0693382,27.7405415 C15.1463472,27.6053984 15.1983206,27.572798 15.349696,27.5652481 C15.4972964,27.5584532 15.5709267,27.5547235 15.7185272,27.5475549 C15.7996885,27.54378 15.847502,27.6282218 15.8025801,27.7018332 C15.4922795,28.2027687 15.3393942,28.4528211 15.0389461,28.9537566 C15.3145173,29.3810805 15.4503398,29.5947803 15.7179836,30.0221042 C15.7598855,30.0915633 15.7130044,30.1805236 15.6344855,30.1846761 C15.5019849,30.1910935 15.4352023,30.1944683 15.3027017,30.2012632 C15.1569887,30.2084356 15.1074199,30.1808634 15.0322985,30.0525152 C14.8813006,29.7984613 14.8047673,29.6712078 14.6507646,29.4171539 C14.4982567,29.6866851 14.4223992,29.8211487 14.2725149,30.0906799 C14.1989035,30.2254455 14.1498631,30.2588009 14.0037727,30.2659733 C13.8614572,30.2731457 13.790526,30.2764941 13.6482105,30.2836665 L13.6482067,30.2836212 Z M8.84383197,30.2028864 C8.74115342,30.1976015 8.68993117,30.1941739 8.58725262,30.1885114 C8.46985178,30.182094 8.40902228,30.1152963 8.40864479,29.9911006 C8.40713481,29.0885108 8.40694606,28.6368385 8.40807855,27.7338712 C8.40807855,27.6096754 8.47084081,27.548846 8.59277159,27.5552634 C9.11824418,27.583198 9.38098047,27.5966255 9.90607556,27.6249376 C10.0276288,27.6309775 10.0889868,27.6981526 10.0863444,27.8223484 C10.0840794,27.9050197 10.0832489,27.9464875 10.081369,28.0291589 C10.078349,28.1533546 10.0148846,28.2143615 9.89446383,28.2083216 C9.55207616,28.1898244 9.38069357,28.1805455 9.03792841,28.1624258 C9.03113351,28.9072228 9.02845707,29.2794703 9.02354964,30.0242673 C9.02241715,30.148463 8.96161031,30.2092925 8.84383575,30.2028751 L8.84383197,30.2028864 Z M158.796041,30.0298051 L158.054491,30.0287104 L155.718742,28.4925713 L155.71912,28.137564 L156.83171,28.139225 L156.839449,23.8493755 C156.840959,22.9618855 156.69639,22.7359927 155.777179,22.605757 L155.777556,22.1058786 L159.922448,22.112515 L159.92207,22.6129596 C159.002493,22.7401753 158.856893,22.9659851 158.855383,23.8527277 L158.84874,27.5786378 C159.653936,28.3060701 160.314702,28.6618966 160.895289,28.663029 C161.685386,28.6641615 161.911618,28.2614502 161.912751,27.5355279 L161.919395,23.8582768 C161.920904,22.9711643 161.776335,22.745649 160.857124,22.6146584 L160.858257,22.1147799 L165.002771,22.1219674 L165.002394,22.6218459 C164.082439,22.7490616 163.937594,22.9746713 163.935707,23.8621424 L163.929063,27.7167405 C163.926798,29.0070173 163.376486,29.9250088 161.747597,29.9219889 C160.747613,29.9201014 159.764995,29.3055778 158.798608,28.4815069 L158.796041,30.0298051 Z M152.216687,30.0181934 L151.507223,30.0170987 L149.170909,28.4803933 L149.171286,28.1259409 L150.284405,28.1281682 L150.292143,23.8375637 C150.293653,22.9508287 150.148707,22.7243696 149.229873,22.593379 L149.231006,22.0935005 L153.504245,22.1017941 L153.503113,22.6016726 C152.45481,22.7609753 152.309475,22.9859621 152.307587,23.986323 L152.30151,27.3085781 C152.623513,27.8899199 152.928944,28.3096563 153.250947,28.6003272 C153.252079,27.971421 153.688236,27.5693892 154.236359,27.5701442 C154.784481,27.5712767 155.316144,28.0076228 155.314638,28.8464159 C155.313502,29.5561059 154.909696,29.9909043 154.200383,29.9893943 C153.40991,29.9878843 152.798179,29.3256454 152.219103,28.3890811 L152.216687,30.0181934 Z M92.9953222,29.9136802 L92.2858587,29.9125855 L89.9501104,28.3758802 L89.9504879,28.0214278 L91.0636064,28.0230887 L91.0708166,23.7324843 C91.0723266,22.8453718 90.9273799,22.6198565 90.0085466,22.4888658 L90.0096791,21.9889874 L94.2836738,21.9961749 L94.2825413,22.4966196 C93.2338611,22.6555448 93.0885256,22.8812866 93.0870156,23.88127 L93.080938,27.2040536 C93.4025634,27.7853954 93.7079944,28.2047543 94.0303748,28.4958027 C94.0315073,27.8668965 94.4670984,27.4648647 95.0152207,27.4656197 C95.5637205,27.4667522 96.0955727,27.9030983 96.0940659,28.7418914 C96.0929302,29.4512039 95.6889732,29.8860023 94.9792832,29.8848698 C94.1891868,29.8833598 93.5772302,29.2211209 92.9985309,28.2845566 L92.9953222,29.9136802 Z M145.410458,29.89322 C143.168894,29.8894451 141.52717,28.0802263 141.531315,25.8381722 C141.535097,23.6128411 142.957082,21.9212875 145.45689,21.9258083 C146.98914,21.9284599 147.907358,22.607233 148.453971,23.5437973 L148.018229,23.8816626 C147.583355,23.3807272 146.922664,23.0411707 146.164654,23.0400382 C144.6811,23.0373958 143.840042,24.1644816 143.530874,25.6318034 L148.366581,27.2531053 C148.266922,28.9627787 147.007185,29.896021 145.410382,29.8930011 L145.410458,29.89322 Z M131.718348,29.8689216 C130.009052,29.8658705 128.897784,28.8804962 128.900426,27.3965646 C128.903446,25.8964008 130.145592,25.4633766 131.307521,25.0779546 C132.453217,24.6932875 133.244182,24.4683384 133.245692,23.6136905 C133.246447,23.081423 132.843924,22.6779189 132.07006,22.6764089 C130.989293,22.6745215 130.165524,23.3825882 129.17913,24.6388905 L128.744483,24.4768698 L129.377617,21.9619625 L129.65189,21.9625288 L130.119153,22.3020513 C130.651798,22.0445999 131.248315,21.9005857 131.909685,21.9017115 C133.55443,21.9047381 134.907786,22.8745974 134.905147,24.4393129 C134.902501,25.9394767 133.659449,26.4047766 132.49752,26.7739664 C131.351824,27.1427787 130.561425,27.3833938 130.559915,28.222187 C130.55916,28.6736706 130.897211,29.0936334 131.558578,29.0947659 C132.381138,29.0958984 133.107665,28.5976432 133.980055,27.6150245 L134.399225,27.8096683 L133.783229,29.8080874 L133.524993,29.8080874 L133.235235,29.5653319 C132.782997,29.7578542 132.266924,29.8700456 131.718424,29.8689216 L131.718348,29.8689216 Z M124.332288,29.8561727 C122.284001,29.8523977 120.785876,28.7530577 120.787764,27.7206098 C120.788519,27.2208069 121.127871,26.8020898 121.708473,26.8032222 C122.369466,26.8043547 122.69162,27.2401723 122.787881,27.6758012 C122.883765,28.1759816 122.721121,28.5467946 122.47877,28.7563042 C122.881934,28.9503365 123.284759,29.0478962 123.704155,29.0482737 C124.397613,29.0494062 124.737094,28.8084626 124.738226,28.1795452 L124.740869,26.5665482 C121.8553,25.8515733 120.534068,25.2202134 120.536707,23.68834 C120.538976,22.5109342 121.297816,21.8835758 122.491454,21.885083 C123.249085,21.8865957 124.119362,22.2109693 124.860384,22.7930737 C124.97401,22.2608062 125.345842,21.9547335 126.0393,21.955866 C126.732757,21.957376 127.473817,22.2807908 127.95701,22.6205209 L127.811026,23.0723065 C127.021307,22.9254611 126.730711,23.0377129 126.729956,23.5699955 L126.722218,27.8764547 C126.719953,29.166354 126.154428,29.8590945 124.332299,29.8560745 L124.332288,29.8561727 Z M116.607237,29.8423488 C114.365296,29.8381964 112.723949,28.0293551 112.727717,25.787301 C112.731499,23.5615924 114.15405,21.8700388 116.653668,21.8745597 C118.185542,21.8775887 119.103609,22.5569281 119.650221,23.4931149 L119.214479,23.8309802 C118.779983,23.3304222 118.11948,22.9902995 117.361471,22.9887896 C115.877539,22.9861471 115.036481,24.1141767 114.727691,25.581121 L119.563397,27.2024229 C119.463739,28.9120962 118.203624,29.8449611 116.607237,29.8423488 L116.607237,29.8423488 Z M84.7874555,29.7859473 C82.1744374,29.7814174 80.6131194,27.8914526 80.6168875,25.69768 C80.6210468,23.5848423 82.0435222,21.8136373 84.6402326,21.8185346 C87.2528732,21.8226972 88.8134362,23.7124733 88.8096681,25.9060571 C88.8058863,28.0185173 87.3837506,29.7900998 84.7874555,29.7855698 L84.7874555,29.7859473 Z M145.009181,29.0537982 C145.750958,29.0549289 146.219844,28.5235297 146.415386,27.4756044 L143.417173,26.4382491 C143.40094,26.6156716 143.400412,26.7929582 143.400027,26.9707431 C143.397769,28.2772521 143.944646,29.0519089 145.009181,29.0537982 Z M116.205582,29.0029233 C116.947359,29.0040539 117.416245,28.4730322 117.611788,27.4247295 L114.613574,26.3873741 C114.597342,26.5647966 114.596995,26.7422871 114.596995,26.9193396 C114.594737,28.2258487 115.141425,29.001034 116.205582,29.0029233 L116.205582,29.0029233 Z M84.5794559,28.995734 C86.2887518,28.9987539 86.7925562,26.9019975 86.7963395,24.9829656 C86.7989736,23.5318761 86.171502,22.611695 84.8487606,22.6090501 C83.1390873,22.6064101 82.6352829,24.7018453 82.6318793,26.6214435 C82.6296204,28.073288 83.2567146,28.99362 84.5794559,28.995885 L84.5794559,28.995734 Z M124.741114,25.8410487 L124.745531,23.5019785 C124.294802,23.1463785 123.891261,22.9845843 123.488096,22.9838265 C122.85919,22.9826968 122.487622,23.3208641 122.486108,24.1113304 C122.484602,24.9338913 122.855166,25.3215783 124.741114,25.841011 L124.741114,25.8410487 Z M12.3307503,25.5490821 C12.2088195,25.5498305 12.1458836,25.4863661 12.1455061,25.3621703 C12.1417311,24.4584481 12.139704,24.0064359 12.1355451,23.1027137 C12.1347966,22.9785179 12.2000692,22.9136228 12.3257749,22.9124903 C12.4371358,22.9117354 12.4927332,22.9115844 12.6044717,22.9108146 C12.7305549,22.9096969 12.7950725,22.9735388 12.7946967,23.0977345 C12.7912976,24.0018343 12.7896215,24.4536199 12.7858465,25.3577196 C12.785469,25.4819154 12.7221556,25.5460819 12.6006023,25.5468369 L12.3307503,25.5490821 Z M13.8740995,25.5275092 C13.7525462,25.5335491 13.6876247,25.4721647 13.6849822,25.3483465 C13.6830947,25.2652976 13.6822643,25.2240299 13.6800068,25.1409811 C13.6773644,25.0171628 13.7394245,24.9501651 13.8624878,24.9441252 C14.0976669,24.9335553 14.2151169,24.9279759 14.4502847,24.9170286 C14.4404699,24.1718541 14.4354454,23.7994179 14.4237431,23.0546209 C14.4218556,22.9304251 14.4856711,22.8638049 14.6117543,22.8577649 C14.7231152,22.85248 14.7792676,22.8505057 14.891006,22.8455983 C15.0174667,22.8395584 15.0826865,22.9005653 15.0834414,23.024761 C15.0891039,23.769558 15.0912782,24.1418055 15.0950532,24.8866025 C15.3306099,24.8760327 15.4485845,24.8706307 15.6845111,24.8600609 C15.8075744,24.854021 15.8706877,24.9144729 15.8703119,25.0386687 C15.8695552,25.1217175 15.869593,25.1628078 15.8692155,25.2454792 C15.8684605,25.3696749 15.8046186,25.4372276 15.6823103,25.44289 C14.9582755,25.4768645 14.5966356,25.4935196 13.8741108,25.5274941 L13.8740995,25.5275092 Z M10.1658938,25.5208728 C9.82275116,25.509548 9.65121758,25.5041725 9.30769743,25.4932251 C9.18576665,25.4890727 9.12265331,25.4223996 9.12189833,25.2985813 C9.11774588,24.3944816 9.11569231,23.942696 9.11304822,23.0385962 C9.11267236,22.9144005 9.17791854,22.8525178 9.30437925,22.8566702 C9.4146077,22.8596902 9.46897825,22.8615663 9.5792067,22.8649638 C9.70566741,22.8694937 9.77035868,22.9354156 9.76998118,23.0596076 C9.76809371,23.3816105 9.76707447,23.5434425 9.76555694,23.8658229 L10.0602897,23.8752226 C10.2275198,23.5501996 10.3123089,23.3879147 10.4833102,23.0628918 C10.5539017,22.9300136 10.6080156,22.8976246 10.7609009,22.902532 L11.0971052,22.9135926 C11.1888364,22.9166126 11.2404286,23.0044858 11.1966393,23.0822497 C10.9833548,23.4616318 10.8780337,23.6510209 10.6696567,24.0300256 C10.9467378,24.1670561 11.1024166,24.4171464 11.0959992,24.7300894 C11.0854293,25.2197 10.724216,25.5393248 10.16589,25.5208275 L10.1658938,25.5208728 Z M7.84011139,25.4058578 C7.24744475,25.355651 6.95103593,25.3310912 6.35648182,25.2808844 C6.23379605,25.270692 6.17103378,25.2017615 6.17178204,25.0779432 C6.17896117,24.1768635 6.18351376,23.7267766 6.1944611,22.8256968 C6.19597108,22.7018785 6.26264419,22.6435292 6.38910491,22.6537215 C7.00366624,22.7039283 7.30981442,22.7288656 7.92248827,22.7786949 C8.04857149,22.7892648 8.11171125,22.8583689 8.10718132,22.9821872 C8.10453885,23.0569311 8.10355737,23.094522 8.10054496,23.1696435 C8.09639252,23.2934617 8.02939476,23.3527397 7.90368904,23.3421699 C7.48240498,23.3074404 7.27176295,23.2900832 6.84972391,23.2553537 C6.84557147,23.4580683 6.84354432,23.559335 6.83976937,23.7624423 C7.12893029,23.7858469 7.2735485,23.7980022 7.56195443,23.8221619 C7.68690517,23.8319768 7.74931637,23.9012848 7.74554142,24.025103 C7.74365395,24.0911646 7.74244596,24.1242029 7.74056604,24.189887 C7.73716859,24.3137053 7.67139769,24.3724321 7.54757944,24.3618623 C7.26106098,24.3384576 7.11765075,24.3263023 6.83037731,24.3021426 C6.82697985,24.484095 6.82510371,24.575109 6.82208375,24.7566839 C7.2365729,24.7914135 7.44351548,24.8087707 7.85724964,24.8435002 C7.98031291,24.8536925 8.04073848,24.9231742 8.03696353,25.0469925 C8.03469856,25.1217364 8.03371708,25.1593273 8.03143324,25.2344488 C8.02765829,25.358267 7.96203461,25.4160614 7.84010384,25.4058691 L7.84011139,25.4058578 Z M17.4163963,25.3256779 C17.2748358,25.3385127 17.2149311,25.3032925 17.1598169,25.1730568 C16.7849647,24.2885868 16.5914987,23.8462008 16.1921093,22.9617307 C16.1502074,22.871132 16.2074696,22.7833343 16.3071282,22.7742744 C16.4192441,22.7640821 16.4751926,22.7590312 16.586931,22.7488389 C16.7326439,22.7356265 16.7956101,22.7710204 16.8495918,22.9020111 C16.9028185,23.0296043 16.9298321,23.0934839 16.9823038,23.2210771 C17.3820707,23.1848377 17.5821051,23.1662498 17.982627,23.1303878 C18.0290588,22.9933573 18.0526711,22.9256838 18.0998579,22.7886532 C18.1474223,22.6489802 18.2083084,22.6022426 18.3547763,22.5890303 C18.4823695,22.5777054 18.5458717,22.5721525 18.6738424,22.5608276 C18.7742559,22.5513903 18.8361877,22.628218 18.7988157,22.7256116 C18.4432158,23.6757657 18.2696437,24.1508427 17.9306535,25.1006193 C17.8800692,25.2406699 17.8217199,25.2877586 17.6801594,25.3013484 C17.5748383,25.3107857 17.5217135,25.315863 17.4163925,25.3256779 L17.4163963,25.3256779 Z M5.07420791,25.1503845 C4.96548944,25.1356622 4.91068854,25.1275045 4.80159258,25.1127822 C4.66040957,25.0931525 4.60224897,25.0443877 4.55883708,24.9032047 C4.34593008,24.2225818 4.23846113,23.8823459 4.01913294,23.201723 C3.74809177,23.8166618 3.61525139,24.1240557 3.35666754,24.7389945 C3.30457328,24.8665877 3.24406465,24.8992561 3.10174916,24.8800039 C2.97717592,24.8626392 2.91444763,24.8544135 2.78987439,24.8374263 C2.69248076,24.824214 2.63338397,24.733502 2.67264342,24.6455457 C3.04334319,23.7818379 3.23548798,23.3499085 3.63261237,22.4862007 C3.69150154,22.358985 3.7550641,22.3261165 3.90190952,22.3457463 L4.1568279,22.3800303 C4.30329584,22.3992826 4.36325331,22.4485985 4.41119514,22.590159 C4.73433058,23.5505054 4.8922366,24.0309806 5.20140474,24.9917046 C5.23386928,25.0898532 5.17086165,25.1636194 5.07422301,25.1504071 L5.07420791,25.1503845 Z M20.5450721,24.9950001 C20.0464017,25.0459619 19.6698885,24.7422335 19.6464838,24.3043359 C19.6317615,24.0234798 19.7697094,23.7758811 20.0407392,23.5788288 C20.1419078,23.5025749 20.4410723,23.2927105 20.5433734,23.2160791 C20.6502044,23.1375602 20.7045712,23.068524 20.7004187,22.9783028 C20.6947563,22.8627894 20.5807529,22.7946969 20.4172977,22.8113067 C20.2727173,22.8256515 20.1308208,22.8971301 19.9594344,23.0496379 C19.8650608,23.1341967 19.7818836,23.1425167 19.6973248,23.0568254 C19.6705227,23.0322883 19.59086,22.9525199 19.5640578,22.9279827 C19.4753466,22.8385165 19.473931,22.7479329 19.5679272,22.6520492 C19.7596945,22.4561295 20.0343218,22.300277 20.3929418,22.2643999 C20.911242,22.2123057 21.3114618,22.4768464 21.332979,22.9600471 C21.3446814,23.2254259 21.2069184,23.4764221 20.9309849,23.6772493 C20.8286839,23.7535032 20.5295194,23.9639187 20.4283508,24.0405501 C20.3109499,24.1239765 20.2686101,24.1846285 20.2735176,24.2816447 C20.2788025,24.3865882 20.3689709,24.4635669 20.5195912,24.4480896 C20.6135874,24.4390297 20.7171908,24.3911408 20.8270418,24.304317 C20.9255679,24.2265531 21.012437,24.2221364 21.0924658,24.3153776 C21.1151155,24.3410472 21.184835,24.4209628 21.2074847,24.4458775 C21.2829836,24.5289263 21.2870568,24.6301779 21.2108066,24.7019019 C21.0292317,24.8710195 20.7851059,24.9708178 20.5450193,24.9949775 L20.5450721,24.9950001 Z M10.1560412,24.9894702 C10.3198739,24.9947551 10.4402154,24.8779432 10.4424804,24.6975007 C10.4451229,24.5242307 10.3263593,24.3997556 10.1610166,24.3944706 C10.0020913,24.3891857 9.9227344,24.3866603 9.7634392,24.3817528 C9.76268421,24.619952 9.76196697,24.738927 9.76121198,24.9767599 C9.91900475,24.9816674 9.99824089,24.9841928 10.1560337,24.9894777 L10.1560412,24.9894702 Z M17.5126574,24.5343626 C17.6289258,24.1840476 17.6870222,24.008437 17.805178,23.657367 C17.5560316,23.6803942 17.4318547,23.6922248 17.1830668,23.7148745 C17.3163224,24.0429174 17.3824029,24.2067123 17.5126385,24.5343777 L17.5126574,24.5343626 Z M12.3115358,20.8062252 C12.1854526,20.8084902 12.119157,20.7457279 12.116892,20.6215322 C12.1157595,20.5384833 12.11508,20.4972156 12.11357,20.4141668 C12.1113051,20.289971 12.1754716,20.2247249 12.3026873,20.2228374 L12.9109445,20.2112257 C12.9052821,19.4656737 12.9018808,19.0927089 12.8954634,18.347157 C12.8947084,18.2229612 12.9611551,18.1575414 13.0917682,18.1552764 C13.2069041,18.1530114 13.2647287,18.1525585 13.3798646,18.150301 C13.5101003,18.1480361 13.5772754,18.2105945 13.5772754,18.3355452 C13.5776529,19.0810972 13.5776529,19.4536844 13.5772754,20.1996139 L14.1850041,20.1885533 C14.3122198,20.1859109 14.3772886,20.2490506 14.3757786,20.3732464 C14.3750236,20.4562952 14.3748726,20.4975629 14.3741176,20.5806117 C14.3729851,20.705185 14.3066593,20.7702273 14.1805761,20.7724923 C13.4323817,20.7857046 13.0589639,20.7926316 12.3115245,20.8062214 L12.3115358,20.8062252 Z M10.4972209,20.7835529 C10.1419984,20.7748705 9.96491566,20.7701178 9.60969317,20.7614355 C9.48360995,20.758038 9.4180127,20.6926446 9.41725771,20.5684489 C9.41386026,19.6643491 9.41160661,19.212186 9.40896257,18.3084638 C9.40858666,18.1838905 9.47576183,18.1214793 9.60637499,18.1248768 C9.72000089,18.1275192 9.77679874,18.1290443 9.89004714,18.1320643 C10.0210378,18.1350842 10.087658,18.2004776 10.0869031,18.3250509 L10.0830337,19.1307378 C10.2049645,19.1337577 10.2656128,19.1354602 10.3871661,19.1384802 C10.5600587,18.8127023 10.6471693,18.6497378 10.8234744,18.3239599 C10.8959534,18.1899493 10.9517434,18.1574357 11.1099136,18.1608331 C11.2488317,18.1646081 11.318638,18.1662842 11.4571785,18.1696816 C11.5523072,18.1719466 11.6053301,18.2601973 11.5600307,18.3383387 C11.3407063,18.7188533 11.2318067,18.9083934 11.0170046,19.288908 C11.3031456,19.4244286 11.4641471,19.6730843 11.4577297,19.9856499 C11.4475373,20.4752605 11.0744216,20.797943 10.4972322,20.7835982 L10.4972209,20.7835529 Z M15.1505977,20.7376571 C15.0509391,20.744452 14.9869991,20.6656386 15.0228611,20.569 C15.3550564,19.6275283 15.5257972,19.1570189 15.8749798,18.2155472 C15.9270741,18.0762517 15.9890587,18.0310656 16.1393016,18.0220057 C16.2438676,18.0152108 16.2962903,18.0116586 16.4008563,18.0048637 C16.5514767,17.9958038 16.615715,18.0331003 16.6734717,18.1652234 C17.0626687,19.0598858 17.2517935,19.5071415 17.6179633,20.4025588 C17.6564678,20.4939125 17.594687,20.5802796 17.4946509,20.586697 C17.382535,20.5938694 17.3264091,20.5977727 17.2142932,20.6049451 C17.0682027,20.6143824 17.0062898,20.5768821 16.9549506,20.4451365 C16.7027841,19.8083029 16.5742472,19.4899617 16.3107559,18.8531282 C16.0706693,19.5216712 15.9530721,19.8556785 15.721298,20.5242216 C15.6748661,20.6627621 15.6143047,20.7079482 15.4685917,20.7177631 L15.1505977,20.7376571 Z M8.02463078,20.6818067 C7.91289236,20.6750118 7.85694387,20.6714596 7.74482795,20.6646647 C7.61836724,20.6567373 7.5534457,20.5886864 7.55571067,20.4644906 C7.56930048,19.5619008 7.57705422,19.1102285 7.59441898,18.2072612 C7.59668394,18.083443 7.6656409,18.0234892 7.79625405,18.0314166 C7.91176742,18.038589 7.96956563,18.0413863 8.0854565,18.0485587 C8.21569216,18.0561086 8.28111199,18.124537 8.27733704,18.2487328 C8.25279989,19.1517 8.24207526,19.6029949 8.22093556,20.5059622 C8.2179156,20.6301579 8.15146899,20.6901116 8.02463078,20.6818067 L8.02463078,20.6818067 Z M6.43817166,20.5761913 C6.32605575,20.5648664 6.26992984,20.5591398 6.15781392,20.5474375 C6.01172348,20.5327152 5.95186415,20.4851018 5.90731978,20.3450513 C5.6861079,19.6700908 5.57405993,19.3321576 5.3460607,18.6568196 C5.06897961,19.2815733 4.93311927,19.5940256 4.66811801,20.2184018 C4.61451377,20.34826 4.55192515,20.383182 4.40545722,20.3677047 C4.27748652,20.3544924 4.21363708,20.3482902 4.08528889,20.3350779 C3.9848753,20.324508 3.92417416,20.2359818 3.96418859,20.1465155 C4.34470323,19.2680854 4.54122695,18.8298141 4.94627874,17.9517615 C5.00630039,17.8222808 5.07176552,17.7879137 5.22276339,17.8030135 C5.32770691,17.8132058 5.37992952,17.8184341 5.48487304,17.829004 C5.63549341,17.8437263 5.69715339,17.8909622 5.74698269,18.0313902 C6.08333045,18.9841868 6.24761613,19.4602453 6.56924159,20.4130419 C6.60321611,20.5104355 6.53822285,20.5867385 6.43818676,20.5761686 L6.43817166,20.5761913 Z M19.2167439,20.4749963 C18.7233583,20.5202956 18.3480909,20.2123015 18.3220437,19.7732714 C18.3050565,19.4920379 18.4405771,19.2460624 18.7074658,19.0516526 C18.8124093,18.9784187 19.0976066,18.7665611 19.2029276,18.6933271 C19.3082486,18.6159407 19.3610072,18.5470517 19.3560998,18.457208 C19.3496824,18.3413171 19.2362037,18.2721714 19.074636,18.2868937 C18.931943,18.2997285 18.7919491,18.3692479 18.6239829,18.5202458 C18.5307417,18.6044271 18.4486441,18.6116675 18.3640853,18.5252212 C18.3365282,18.4995516 18.2585529,18.4202135 18.2313733,18.3941664 C18.1426621,18.3043226 18.1401706,18.213739 18.2330343,18.1182329 C18.4214041,17.9238231 18.693087,17.7709831 19.0475545,17.7388885 C19.5605698,17.6920791 19.9579207,17.9614631 19.9820804,18.44503 C19.9956702,18.7115412 19.8608895,18.9609142 19.5894859,19.1594764 C19.4837874,19.2327104 19.1985902,19.4441905 19.0940241,19.5178019 C18.9785108,19.6000958 18.9372242,19.6602231 18.9425091,19.7572392 C18.9481715,19.8625603 19.0387438,19.9411433 19.1874729,19.9275535 C19.2807141,19.9188711 19.3830907,19.8714805 19.4910542,19.7865441 C19.5880703,19.7099127 19.6738899,19.7059943 19.7531638,19.800368 C19.7765685,19.8260376 19.8453291,19.9068593 19.8687338,19.9325289 C19.9438552,20.0163327 19.9488306,20.1170332 19.8737092,20.1880022 C19.6955317,20.3552323 19.4542371,20.4527203 19.2167929,20.4749925 L19.2167439,20.4749963 Z M10.4864245,20.2521499 C10.6559197,20.2563023 10.7805533,20.1384107 10.7828183,19.9579683 C10.7850832,19.7850757 10.6622049,19.6613027 10.4919548,19.6571503 C10.3273672,19.6529979 10.2456849,19.6504196 10.0810896,19.6466446 C10.0799572,19.8844663 10.0794664,20.0039962 10.0783339,20.2421802 C10.2417891,20.2459552 10.3233506,20.2479823 10.4864434,20.2521348 L10.4864245,20.2521499 Z M79.5528501,15.5429038 L75.6506877,15.5362674 L75.6510652,15.0358228 C76.5710197,14.7798814 77.1040044,14.2968769 77.1070244,12.4097811 L77.1136683,8.52309589 C77.1185757,5.79720685 75.6856059,4.53675213 72.9763266,4.5318447 C70.2829021,4.52731476 68.8295476,5.78256005 68.8246402,8.50761861 L68.8158068,13.4112744 C68.8135419,14.6369996 69.1680169,14.8471887 70.1838475,14.9944116 L70.18347,15.5263771 L65.2801917,15.5180835 L65.2805692,14.9855895 C66.2971624,14.8421416 66.6203733,14.6331341 66.6226383,13.4073976 L66.6309432,8.56904831 C66.6366056,5.43999496 68.2690436,3.26562564 72.381697,3.27278035 C76.494124,3.27997044 78.1196161,5.45985118 78.1139537,8.52450394 L78.1067813,12.4119441 C78.1033838,14.29904 78.635085,14.7841961 79.5539071,15.043535 L79.5528501,15.5429038 Z M126.856708,15.013694 C126.147018,15.012184 125.615807,14.4633068 125.616938,13.7860813 C125.618072,13.1571752 126.086581,12.6579762 126.731719,12.6591068 C127.409322,12.6602412 127.956576,13.2091185 127.955445,13.9021987 C127.954311,14.5156275 127.485614,15.0147887 126.856708,15.0136563 L126.856708,15.013694 Z M92.4729828,14.9528702 C91.7632928,14.9513583 91.2320823,14.4024811 91.233213,13.7252556 C91.2343473,13.0963495 91.7028559,12.5969995 92.3479943,12.5977537 C93.0255973,12.598887 93.5732288,13.1484815 93.5717219,13.8419392 C93.5705863,14.4549906 93.1018889,14.9540008 92.4729828,14.9528702 Z M132.796964,12.685673 L132.506655,12.6851068 L129.606892,10.7767957 L129.608025,10.2608737 L130.78528,10.2625347 L130.795246,4.98893413 C130.797133,3.94063142 131.394556,3.37733386 132.571924,3.37921661 C133.490746,3.38073132 134.393336,3.68851405 135.166445,4.27059951 L134.92369,4.78652148 C134.488816,4.59211172 134.101619,4.49437835 133.763007,4.49400086 C133.004997,4.49249088 132.81138,4.87912093 132.810248,5.41138842 L132.801415,10.2663474 L134.849625,10.2696694 L134.848115,11.1892464 L132.799905,11.1853771 L132.796964,12.685673 Z M127.880473,11.450888 L127.089735,11.449227 L124.7219,9.89704438 L124.723032,9.54259198 L125.867672,9.5448192 L125.87541,5.270447 C125.876543,4.38333452 125.716172,4.17348523 124.732432,4.02626231 L124.732809,3.52638386 L129.038891,3.53412628 L129.038514,4.03400472 C128.03853,4.1774527 127.892591,4.3866527 127.891081,5.27377273 L127.880473,11.450888 Z M114.236306,11.4271096 L113.526842,11.4254486 L111.191094,9.88930951 L111.191471,9.5343022 L112.30459,9.53652941 L112.311762,5.24667994 C112.313272,4.35918996 112.168703,4.13367464 111.249492,4.00306149 L111.250625,3.50318304 L115.52462,3.51037054 L115.524242,4.00972049 C114.475562,4.16940074 114.330075,4.39529355 114.328188,5.39489945 L114.32211,8.71768307 C114.643736,9.29864737 114.949167,9.71876119 115.271547,10.0094321 C115.27268,9.38052597 115.708459,8.97811664 116.256959,8.97924913 C116.805082,8.98000412 117.336745,9.41653896 117.335238,10.2549546 C117.334103,10.9650221 116.929579,11.4000092 116.219889,11.3984992 C115.43017,11.3973668 114.818214,10.7347504 114.239137,9.79818607 L114.236306,11.4271096 Z M93.4967484,11.3900585 L92.7065388,11.3889637 L90.3381749,9.83621489 L90.3393074,9.48176249 L91.4839468,9.48342346 L91.4916854,5.20942877 C91.4931954,4.32231628 91.3324431,4.11246699 90.348707,3.96524407 L90.3498395,3.46536562 L94.6551663,3.47310804 L94.6547888,3.97298649 C93.6548054,4.11643446 93.5088659,4.32563446 93.507356,5.21275449 L93.4967484,11.3900585 Z M83.0948826,11.3718104 L82.3528036,11.3701494 L80.0176215,9.83401032 L80.0176215,9.47955792 L81.1307401,9.48178514 L81.1379125,5.19118067 C81.1394225,4.30444568 80.9948571,4.07798663 80.0756425,3.94699598 L80.0771525,3.44711753 L84.2216665,3.45485995 L84.220534,3.95473839 C83.300957,4.08233159 83.1559235,4.30738637 83.1544135,5.1945064 L83.1472411,8.92041658 C83.9524373,9.64784882 84.613204,10.0031091 85.1937908,10.0042415 C85.9838871,10.0057515 86.2106859,9.6028137 86.2118184,8.87726894 L86.2184623,5.20001782 C86.2199723,4.31290534 86.0754031,4.08701253 85.1561923,3.95639937 L85.1565698,3.45652092 L89.3014613,3.46370842 L89.3003288,3.96358687 C88.3807518,4.09118007 88.2355296,4.31678976 88.2336421,5.20388337 L88.2269982,9.05810399 C88.2247333,10.3483808 87.6749878,11.2669386 86.0460982,11.2639186 C85.0461148,11.2620311 84.0631187,10.6475076 83.0971098,9.82343669 L83.0948826,11.3718104 Z M120.735632,11.3253946 C119.026336,11.3227172 117.915444,10.3365879 117.917709,8.85303378 C117.920352,7.35286995 119.163404,6.91946831 120.325333,6.53442375 C121.471406,6.14937918 122.261616,5.92518509 122.263504,5.07015966 C122.264258,4.53826966 121.861585,4.13438811 121.087343,4.13287813 C120.006954,4.13099066 119.183524,4.83905742 118.197508,6.09535969 L117.761766,5.93333898 L118.395467,3.41843171 L118.669739,3.41899795 L119.137002,3.75852044 C119.669647,3.50144656 120.266164,3.35705485 120.927535,3.35818072 C122.572657,3.36120729 123.925635,4.3315951 123.922997,5.89631052 C123.919973,7.39571937 122.677827,7.86158555 121.515898,8.23039784 C120.370202,8.59958763 119.579237,8.83929675 119.577727,9.67808992 C119.576972,10.1295735 119.914845,10.5497251 120.575823,10.5512351 C121.398761,10.5523676 122.125439,10.0537349 122.997829,9.07149373 L123.416999,9.26558639 L122.800437,11.2645717 L122.5422,11.2640054 L122.252443,11.0218049 C121.800582,11.2143271 121.284131,11.3265186 120.735632,11.3253946 L120.735632,11.3253946 Z M107.431209,11.3021362 C105.189646,11.2979837 103.547922,9.48857627 103.55169,7.2467109 C103.555849,5.0210023 104.978022,3.33020365 107.477641,3.33434846 C109.009892,3.33699856 109.927733,4.01633797 110.474722,4.95290226 L110.037885,5.29076754 C109.603767,4.7902096 108.943264,4.44970941 108.184877,4.44857693 C106.701701,4.44593446 105.860982,5.57358655 105.552192,7.04090835 L110.387521,8.66221023 C110.287862,10.3715061 109.028163,11.3047484 107.43136,11.3021362 L107.431209,11.3021362 Z M143.927772,11.2053654 L140.750399,11.1998351 L140.751532,10.7480495 C141.800212,10.5238177 141.914291,9.99170117 141.43223,8.86185961 L140.211828,5.94107007 L138.689505,9.37336489 C138.365614,10.1309967 138.413296,10.5667388 139.526146,10.6977295 L139.525014,11.1970794 L135.283106,11.1898919 L135.284239,10.6900135 C135.784796,10.5620428 135.9783,10.3524653 136.415062,9.45024546 L139.119094,3.64852981 L138.668969,2.68029372 C138.411895,2.1151842 138.170714,1.69559887 137.89703,1.45324729 C137.70262,2.11424046 137.33075,2.46776422 136.750164,2.46738673 C136.169577,2.46625424 135.670755,2.07796322 135.671888,1.31995392 C135.673398,0.562322106 136.28728,-0.00150393943 137.012824,3.01358341e-06 C138.045272,0.00189351264 138.689241,0.51875922 139.476317,2.24617485 L142.512695,8.97765987 C143.106872,10.3011562 143.29996,10.5914874 143.928867,10.7538101 L143.927772,11.2053654 Z M103.430143,11.134034 L100.253337,11.1285037 L100.253714,10.6767181 C101.302772,10.4524863 101.416662,9.92036977 100.934979,8.79052822 L99.7145764,5.86917243 L98.1916874,9.3020335 C97.8677969,10.0596653 97.9158558,10.4948412 99.0283288,10.6258318 L99.0271963,11.1257103 L94.7860437,11.1185228 L94.7871762,10.6180781 C95.2873566,10.4897299 95.4970926,10.2809074 95.9179992,9.37831007 L98.6867339,3.39954943 L99.5256026,3.40064416 L102.015067,8.904894 C102.609998,10.2287678 102.802332,10.5198162 103.431238,10.6821389 L103.430143,11.134034 Z M107.028309,10.4627371 C107.770464,10.4638677 108.238784,9.93246848 108.433948,8.88454326 L105.436301,7.8471879 C105.419691,8.0242329 105.419153,8.20172335 105.419153,8.37915339 C105.41652,9.68566246 105.963774,10.4604703 107.028309,10.4627371 Z" fill="#000000"></path>
                </g>
            </g>
        </g>
    </g>
</svg>