<svg width="66" height="48" viewBox="0 0 66 48" fill="none" xmlns="http://www.w3.org/2000/svg">
<path fill-rule="evenodd" clip-rule="evenodd" d="M15.5 42.5484C13.819 42.5484 12.4516 41.181 12.4516 39.5C12.4516 37.819 13.819 36.4516 15.5 36.4516C17.181 36.4516 18.5484 37.819 18.5484 39.5C18.5484 41.181 17.181 42.5484 15.5 42.5484M15.5 35C13.0186 35 11 37.0186 11 39.5C11 41.9814 13.0186 44 15.5 44C17.9814 44 20 41.9814 20 39.5C20 37.0186 17.9814 35 15.5 35" fill="#0B4595"/>
<path fill-rule="evenodd" clip-rule="evenodd" d="M51.5 42.5484C49.819 42.5484 48.4516 41.181 48.4516 39.5C48.4516 37.819 49.819 36.4516 51.5 36.4516C53.181 36.4516 54.5484 37.819 54.5484 39.5C54.5484 41.181 53.181 42.5484 51.5 42.5484M51.5 35C49.0186 35 47 37.0186 47 39.5C47 41.9814 49.0186 44 51.5 44C53.9814 44 56 41.9814 56 39.5C56 37.0186 53.9814 35 51.5 35" fill="#0B4595"/>
<path fill-rule="evenodd" clip-rule="evenodd" d="M60.279 38.5714C59.9184 34.0994 56.2084 30.5714 51.697 30.5714C47.1855 30.5714 43.4756 34.0994 43.1149 38.5714H37.7179V6.57143H50.9559C52.2457 6.57143 53.4456 7.21771 54.1658 8.3L56.8173 12.2857H46.0822V17.7311C46.0822 21.4426 49.0666 24.4623 52.7351 24.4623H64.588V38.5714H60.279ZM51.697 46.5714C47.7261 46.5714 44.4956 43.3031 44.4956 39.2857C44.4956 35.2683 47.7261 32 51.697 32C55.6676 32 58.8983 35.2683 58.8983 39.2857C58.8983 43.3031 55.6676 46.5714 51.697 46.5714V46.5714ZM63.9678 23.0337H52.7351C49.8452 23.0337 47.4942 20.6549 47.4942 17.7311V13.7143H57.7676L63.9678 23.0337ZM36.3058 38.5714H24.6958C24.3352 34.0994 20.6252 30.5714 16.1138 30.5714C11.6024 30.5714 7.8924 34.0994 7.53177 38.5714H1.41203V1.42857H36.3058V38.5714ZM16.1138 46.5714C12.1429 46.5714 8.91245 43.3031 8.91245 39.2857C8.91245 35.2683 12.1429 32 16.1138 32C20.0844 32 23.3152 35.2683 23.3152 39.2857C23.3152 43.3031 20.0844 46.5714 16.1138 46.5714V46.5714ZM66 24.1411C66 23.7414 65.8834 23.3546 65.6625 23.0229L55.3372 7.50229C54.3541 6.02486 52.7165 5.14286 50.9559 5.14286H37.7179V0H0V40H7.53177C7.8924 44.472 11.6024 48 16.1138 48C20.6252 48 24.3352 44.472 24.6958 40H37.0119H37.7179H43.1149C43.4756 44.472 47.1855 48 51.697 48C56.2084 48 59.9184 44.472 60.279 40H66V24.1411Z" fill="#0B4595"/>
</svg>
