<svg width="68" height="42" viewBox="0 0 68 42" fill="none" xmlns="http://www.w3.org/2000/svg">
<mask id="mask0_0_696" style="mask-type:luminance" maskUnits="userSpaceOnUse" x="0" y="0" width="68" height="42">
<path fill-rule="evenodd" clip-rule="evenodd" d="M0 0H68V42H0V0Z" fill="white"/>
</mask>
<g mask="url(#mask0_0_696)">
<path fill-rule="evenodd" clip-rule="evenodd" d="M66.5899 32.0032H60.7792C60.417 27.2069 56.396 23.4143 51.5018 23.4143C46.6077 23.4143 42.5866 27.2069 42.2245 32.0032H25.2446C24.8825 27.2069 20.8615 23.4143 15.9673 23.4143C11.0731 23.4143 7.0521 27.2069 6.68999 32.0032H1.41001V20.1055C1.41001 17.7375 3.33959 15.8111 5.71081 15.8111H16.6724V14.4031H9.83423L15.3866 3.41554C16.0124 2.17734 17.2643 1.40801 18.6533 1.40801H21.8897V9.33424C21.8897 12.9055 24.7996 15.8111 28.3762 15.8111H60.879C64.028 15.8111 66.5899 18.3691 66.5899 21.5135V32.0032ZM51.5018 40.592C47.1477 40.592 43.6053 37.0548 43.6053 32.7072C43.6053 28.3595 47.1477 24.8223 51.5018 24.8223C55.8559 24.8223 59.3984 28.3595 59.3984 32.7072C59.3984 37.0548 55.8559 40.592 51.5018 40.592V40.592ZM15.9673 40.592C11.6132 40.592 8.07076 37.0548 8.07076 32.7072C8.07076 28.3595 11.6132 24.8223 15.9673 24.8223C20.3214 24.8223 23.8639 28.3595 23.8639 32.7072C23.8639 37.0548 20.3214 40.592 15.9673 40.592V40.592ZM42.2592 2.34574L49.8904 14.4031H28.3762C25.5771 14.4031 23.2998 12.1291 23.2998 9.33424V1.40801H40.5547C41.2504 1.40801 41.8875 1.7586 42.2592 2.34574V2.34574ZM68 21.5135C68 17.5928 64.8056 14.4031 60.879 14.4031H51.5585L43.4513 1.59358C42.8198 0.595868 41.7369 0 40.5547 0H18.6533C16.7288 0 14.9946 1.06586 14.128 2.7811L8.25491 14.4031H5.71081C2.56178 14.4031 -9.15527e-05 16.9611 -9.15527e-05 20.1055V33.4112H6.68999C7.0521 38.2074 11.0731 42 15.9673 42C20.8615 42 24.8825 38.2074 25.2446 33.4112H42.2245C42.5866 38.2074 46.6077 42 51.5018 42C56.396 42 60.417 38.2074 60.7792 33.4112H68V21.5135Z" fill="#0B4595"/>
</g>
</svg>
