<?xml version="1.0" encoding="utf-8"?>
<!-- Generator: Adobe Illustrator 22.1.0, SVG Export Plug-In . SVG Version: 6.00 Build 0)  -->
<svg version="1.1" id="Слой_1" xmlns="http://www.w3.org/2000/svg" xmlns:xlink="http://www.w3.org/1999/xlink" x="0px" y="0px"
	 width="33px" height="33.1px" viewBox="0 0 33 33.1" style="enable-background:new 0 0 33 33.1;" xml:space="preserve">
<style type="text/css">
	.st0{fill:none;stroke:#0979FE;stroke-width:2;stroke-linecap:round;}
</style>
<title>F6940C2A-8AFE-42AF-A408-DBF01DE33498</title>
<g id="Page-1">
	<g id="Gallery" transform="translate(-506, -252)">
		<g id="photos-images-2" transform="translate(506, 252)">
			<path id="Path" class="st0" d="M7.8,24.3l-0.2,1.1C7.4,27,8.4,28.5,10,28.8l15.7,2.8c1.6,0.3,3.1-0.8,3.4-2.4l2.5-14.3
				c0.1-0.8,0-1.6-0.5-2.2c-0.4-0.6-1.1-1.1-1.9-1.2l-4.8-0.9"/>
			<path id="Path_1_" class="st0" d="M4.5,1.6h16.1c0.8,0,1.5,0.3,2.1,0.9s0.9,1.3,0.9,2.1v16.1c0,0.8-0.3,1.5-0.9,2.1
				s-1.3,0.9-2.1,0.9H4.5c-0.8,0-1.5-0.3-2.1-0.9s-0.9-1.3-0.9-2.1V4.6C1.6,2.9,2.9,1.6,4.5,1.6z"/>
			<line id="Path_2_" class="st0" x1="23.6" y1="17.1" x2="1.6" y2="17.1"/>
		</g>
	</g>
</g>
</svg>
