<svg width="147" height="56" viewBox="0 0 147 56" fill="none" xmlns="http://www.w3.org/2000/svg">
<path fill-rule="evenodd" clip-rule="evenodd" d="M28 54.5938C23.8127 54.5938 20.4062 51.1873 20.4062 47C20.4062 42.8127 23.8127 39.4062 28 39.4062C32.1873 39.4062 35.5938 42.8127 35.5938 47C35.5938 51.1873 32.1873 54.5938 28 54.5938M28 38C23.0373 38 19 42.0373 19 47C19 51.9627 23.0373 56 28 56C32.9627 56 37 51.9627 37 47C37 42.0373 32.9627 38 28 38" fill="#0B4595"/>
<path fill-rule="evenodd" clip-rule="evenodd" d="M28.5 50.5484C26.819 50.5484 25.4516 49.181 25.4516 47.5C25.4516 45.819 26.819 44.4516 28.5 44.4516C30.181 44.4516 31.5484 45.819 31.5484 47.5C31.5484 49.181 30.181 50.5484 28.5 50.5484M28.5 43C26.0186 43 24 45.0186 24 47.5C24 49.9814 26.0186 52 28.5 52C30.9814 52 33 49.9814 33 47.5C33 45.0186 30.9814 43 28.5 43" fill="#0B4595"/>
<path fill-rule="evenodd" clip-rule="evenodd" d="M49 54.5938C44.8127 54.5938 41.4062 51.1873 41.4062 47C41.4062 42.8127 44.8127 39.4062 49 39.4062C53.1873 39.4062 56.5938 42.8127 56.5938 47C56.5938 51.1873 53.1873 54.5938 49 54.5938M49 38C44.0373 38 40 42.0373 40 47C40 51.9627 44.0373 56 49 56C53.9627 56 58 51.9627 58 47C58 42.0373 53.9627 38 49 38" fill="#0B4595"/>
<path fill-rule="evenodd" clip-rule="evenodd" d="M49.5 50.5484C47.819 50.5484 46.4516 49.181 46.4516 47.5C46.4516 45.819 47.819 44.4516 49.5 44.4516C51.181 44.4516 52.5484 45.819 52.5484 47.5C52.5484 49.181 51.181 50.5484 49.5 50.5484M49.5 43C47.0186 43 45 45.0186 45 47.5C45 49.9814 47.0186 52 49.5 52C51.9814 52 54 49.9814 54 47.5C54 45.0186 51.9814 43 49.5 43" fill="#0B4595"/>
<path fill-rule="evenodd" clip-rule="evenodd" d="M92 54.5938C87.8127 54.5938 84.4062 51.1873 84.4062 47C84.4062 42.8127 87.8127 39.4062 92 39.4062C96.1873 39.4062 99.5938 42.8127 99.5938 47C99.5938 51.1873 96.1873 54.5938 92 54.5938M92 38C87.0373 38 83 42.0373 83 47C83 51.9627 87.0373 56 92 56C96.9627 56 101 51.9627 101 47C101 42.0373 96.9627 38 92 38" fill="#0B4595"/>
<path fill-rule="evenodd" clip-rule="evenodd" d="M92.5 50.5484C90.819 50.5484 89.4516 49.181 89.4516 47.5C89.4516 45.819 90.819 44.4516 92.5 44.4516C94.181 44.4516 95.5484 45.819 95.5484 47.5C95.5484 49.181 94.181 50.5484 92.5 50.5484M92.5 43C90.0186 43 88 45.0186 88 47.5C88 49.9814 90.0186 52 92.5 52C94.9814 52 97 49.9814 97 47.5C97 45.0186 94.9814 43 92.5 43" fill="#0B4595"/>
<path fill-rule="evenodd" clip-rule="evenodd" d="M133.5 50.5484C131.819 50.5484 130.452 49.181 130.452 47.5C130.452 45.819 131.819 44.4516 133.5 44.4516C135.181 44.4516 136.548 45.819 136.548 47.5C136.548 49.181 135.181 50.5484 133.5 50.5484M133.5 43C131.019 43 129 45.0186 129 47.5C129 49.9814 131.019 52 133.5 52C135.981 52 138 49.9814 138 47.5C138 45.0186 135.981 43 133.5 43" fill="#0B4595"/>
<path fill-rule="evenodd" clip-rule="evenodd" d="M62.9495 45.5714C62.5866 38.026 56.3916 31.9663 48.8287 31.9226L26.4247 31.7929C26.3964 31.7926 26.3683 31.7926 26.3403 31.7926C22.5583 31.7926 19.0019 33.2731 16.3175 35.9666C13.7811 38.5114 12.3135 41.8489 12.1411 45.4286H1.41554V1.42857H113.584V33.0334H90.1944C83.1915 33.0334 77.4512 38.5949 77.0823 45.5714H62.9495ZM115 34.462V0H0V46.8571H13.5393V46.1429C13.5393 42.6771 14.8804 39.4229 17.3157 36.9797C19.7507 34.5363 22.9705 33.1963 26.4162 33.2214L48.8205 33.3511C55.8401 33.3914 61.551 39.188 61.551 46.2723V47H78.4791V46.2857C78.4791 39.7663 83.7345 34.462 90.1944 34.462H115Z" fill="#0B4595"/>
<path fill-rule="evenodd" clip-rule="evenodd" d="M142.198 46.2358C141.839 41.572 137.962 37.8868 133.246 37.8868C128.53 37.8868 124.654 41.572 124.294 46.2358H120.335V40.1509V39.4434V12.4151H133.845L138.349 19.4906H127.913V25.1634C127.913 29.1358 131.119 32.3679 135.058 32.3679H145.597V46.2358H142.198ZM133.246 54.5849C129.067 54.5849 125.668 51.157 125.668 46.9434C125.668 42.7298 129.067 39.3019 133.246 39.3019C137.425 39.3019 140.825 42.7298 140.825 46.9434C140.825 51.157 137.425 54.5849 133.246 54.5849V54.5849ZM104.079 40.1509H118.931V46.2358H106.156C105.817 43.5625 104.791 41.3897 104.079 40.1509V40.1509ZM145.597 30.9528H135.058C131.893 30.9528 129.317 28.3556 129.317 25.1634V20.9057H139.249L145.597 30.8773V30.9528ZM147 30.4624L134.612 11H118.931V38.7358H102.84C102.562 38.7358 102.313 38.8912 102.189 39.1417L102 39.5524L102.255 39.9005C102.484 40.2143 104.507 43.0782 104.825 47.0009L104.878 47.6509H124.294C124.654 52.3148 128.53 56 133.246 56C137.962 56 141.839 52.3148 142.198 47.6509H147V30.4624Z" fill="#0B4595"/>
</svg>
