<svg width="231" height="99" viewBox="0 0 231 99" fill="none" xmlns="http://www.w3.org/2000/svg">
<path d="M0.00858544 52.2C0.408585 72 12.0086 88.9 28.6086 97.1L48.3086 0.0999985C20.9086 1.5 -0.491415 24.5 0.00858544 52.2Z" fill="white"/>
<path d="M73.9086 97.1C90.5086 88.9 102.109 72 102.509 52.2C103.109 24.6 81.6086 1.6 54.2086 0.0999985L73.9086 97.1Z" fill="white"/>
<path fill-rule="evenodd" clip-rule="evenodd" d="M50.4086 6.7V0.8C50.4086 0.4 50.8086 0 51.2086 0C51.6086 0 52.0086 0.4 52.0086 0.8V6.7C52.0086 7.1 51.6086 7.5 51.2086 7.5C50.8086 7.5 50.4086 7.1 50.4086 6.7ZM50.4086 13.8V19.7C50.4086 20.1 50.8086 20.5 51.2086 20.5C51.6086 20.5 52.0086 20.1 52.0086 19.7V13.8C52.0086 13.4 51.6086 13 51.2086 13C50.8086 13 50.4086 13.4 50.4086 13.8ZM50.4086 32.7V26.8C50.4086 26.3 50.8086 26 51.2086 26C51.6086 26 52.0086 26.4 52.0086 26.8V32.7C52.0086 33.1 51.6086 33.5 51.2086 33.5C50.8086 33.5 50.4086 33.1 50.4086 32.7ZM50.4086 39.8V45.7C50.4086 46.1 50.8086 46.5 51.2086 46.5C51.6086 46.5 52.0086 46.1 52.0086 45.7V39.8C52.0086 39.4 51.6086 39 51.2086 39C50.8086 39 50.4086 39.3 50.4086 39.8ZM50.4086 58.6V52.7C50.4086 52.3 50.8086 51.9 51.2086 51.9C51.6086 51.9 52.0086 52.3 52.0086 52.7V58.6C52.0086 59 51.6086 59.4 51.2086 59.4C50.8086 59.4 50.4086 59 50.4086 58.6ZM50.4086 65.7V71.6C50.4086 72 50.8086 72.4 51.2086 72.4C51.6086 72.4 52.0086 72 52.0086 71.6V65.7C52.0086 65.3 51.6086 64.9 51.2086 64.9C50.8086 64.9 50.4086 65.3 50.4086 65.7ZM50.4086 84.6V78.7C50.4086 78.3 50.8086 77.9 51.2086 77.9C51.6086 77.9 52.0086 78.3 52.0086 78.7V84.6C52.0086 85 51.6086 85.4 51.2086 85.4C50.8086 85.4 50.4086 85 50.4086 84.6ZM50.4086 97.6V91.7C50.4086 91.2 50.8086 90.9 51.2086 90.9C51.6086 90.9 52.0086 91.3 52.0086 91.7V97.6C52.0086 98 51.6086 98.4 51.2086 98.4C50.8086 98.4 50.4086 98 50.4086 97.6Z" fill="white"/>
<path fill-rule="evenodd" clip-rule="evenodd" d="M170.709 31.2C170.709 30.1 171.309 29.6 172.409 29.6V29.4H190.809C193.509 29.4 195.609 30.2 197.109 31.8C197.709 32.4 198.109 33.2 198.509 34C198.809 34.9 199.009 35.8 199.009 36.9C199.009 38 198.709 39 198.309 39.9C197.909 40.8 197.209 41.5 196.409 42.1C197.409 42.6 198.109 43.4 198.609 44.4C199.109 45.4 199.309 46.5 199.309 47.7C199.309 48.6 199.109 49.5 198.809 50.3C198.509 51.1 198.109 51.8 197.509 52.5C196.909 53.3 196.009 53.9 195.009 54.4C194.009 54.9 192.709 55.1 191.209 55.1H172.409C171.309 55.1 170.709 54.6 170.709 53.5V31.2ZM177.609 36.6C177.609 36.2 177.809 36 178.109 36H189.609C190.109 36 190.509 36.1 190.809 36.2C191.109 36.3 191.309 36.5 191.509 36.7C191.809 37.1 192.009 37.5 192.009 37.9C192.009 38.4 191.809 38.8 191.509 39.1C191.338 39.3552 191.168 39.4657 190.937 39.6162C190.896 39.6425 190.853 39.6702 190.809 39.7C190.509 39.8 190.109 39.9 189.609 39.9H177.609V36.6ZM177.609 48.4V44.7H189.609C190.109 44.7 190.509 44.8 190.809 44.9C191.109 45 191.409 45.2 191.609 45.4C192.009 45.8 192.209 46.3 192.209 46.8C192.209 47.3 192.009 47.8 191.709 48.2C191.509 48.4 191.209 48.6 190.909 48.7C190.609 48.8 190.209 48.9 189.709 48.9H178.309C177.809 48.9 177.609 48.7 177.609 48.4ZM114.009 30.2C115.109 29.8 116.509 29.6 118.209 29.6V29.5H137.309V36.3H118.809C118.409 36.3 118.009 36.3 117.809 36.4C117.509 36.5 117.409 36.6 117.209 36.8C116.909 37.1 116.709 37.6 116.709 38.1C116.709 38.7 116.909 39.1 117.309 39.5L117.909 39.8C118.109 39.9 118.409 39.9 118.809 39.9H130.109C131.609 39.9 132.809 40.1 133.809 40.5C134.809 40.9 135.609 41.5 136.309 42.2C137.009 42.9 137.509 43.7 137.909 44.6C138.309 45.5 138.509 46.5 138.509 47.5C138.509 48.4 138.309 49.3 138.009 50.2C137.609 51 137.209 51.8 136.609 52.5C135.909 53.3 135.109 53.9 134.009 54.4C132.909 54.9 131.609 55.1 130.109 55.1H110.109V48.6H128.809C129.309 48.6 129.709 48.5 130.009 48.4C130.309 48.3 130.509 48.1 130.709 47.9C131.009 47.5 131.109 47.2 131.109 46.7C131.109 46.1 131.009 45.7 130.609 45.3C130.409 45.1 130.209 45 129.909 44.9C129.609 44.8 129.209 44.8 128.709 44.8H118.209C116.409 44.8 115.109 44.6 114.009 44.2C113.009 43.8 112.109 43.2 111.409 42.5C110.709 41.8 110.209 41 109.809 40.1C109.409 39.2 109.209 38.3 109.209 37.2C109.209 36.2 109.409 35.2 109.809 34.3C110.209 33.4 110.709 32.6 111.409 31.9C112.109 31.2 113.009 30.6 114.009 30.2ZM140.909 46.8V29.6H147.809V46.2C147.809 47.1 148.009 47.8 148.309 48.1C148.609 48.4 149.209 48.6 150.109 48.6H168.009V55.1H149.309C147.709 55.1 146.409 54.9 145.309 54.6C144.209 54.2 143.309 53.7 142.709 53C142.009 52.3 141.609 51.4 141.309 50.4C141.009 49.4 140.909 48.2 140.909 46.8ZM200.809 36.3V29.6H230.309V36.3H219.009V55.1H212.109V36.3H200.809Z" fill="white"/>
<path fill-rule="evenodd" clip-rule="evenodd" d="M111.609 59C111.209 59.1 110.809 59.3 110.509 59.6C110.209 59.9 110.009 60.2 109.809 60.5L109.809 60.5C109.609 60.9 109.509 61.3 109.509 61.7C109.509 62.2 109.609 62.6 109.709 62.9C109.909 63.2 110.109 63.5 110.409 63.7L110.409 63.7C110.709 63.9 111.009 64.1 111.409 64.3C111.609 64.35 111.834 64.425 112.059 64.5C112.284 64.575 112.509 64.65 112.709 64.7C113.109 64.8 113.409 64.9 113.709 65L113.709 65C114.009 65.1 114.209 65.2 114.309 65.3L114.609 65.6C114.709 65.7 114.709 65.8 114.709 66C114.709 66.3 114.609 66.5 114.309 66.7C114.109 66.9 113.709 66.9 113.309 66.9C112.709 66.9 112.209 66.8 111.809 66.6C111.309 66.4 110.909 66.1 110.409 65.7L109.109 67.2C109.709 67.7 110.309 68.1 111.109 68.4C111.809 68.7 112.609 68.8 113.309 68.8C113.809 68.8 114.309 68.7 114.809 68.6C115.209 68.5 115.609 68.3 115.909 68C116.209 67.7 116.509 67.4 116.609 67C116.809 66.6 116.909 66.2 116.909 65.7C116.909 65.3 116.809 64.9 116.709 64.6C116.609 64.3 116.409 64 116.109 63.8L116.109 63.8C115.809 63.6 115.509 63.4 115.109 63.2C114.709 63 114.309 62.9 113.809 62.8C113.409 62.7 113.009 62.6 112.809 62.5C112.509 62.4 112.309 62.3 112.109 62.2L112.109 62.2C111.909 62.1 111.809 62 111.809 61.9C111.709 61.8 111.709 61.6 111.709 61.5C111.709 61.3 111.809 61.1 112.009 60.9C112.209 60.7 112.509 60.7 112.909 60.7C113.309 60.7 113.709 60.8 114.209 61C114.609 61.2 115.009 61.4 115.509 61.7L116.609 60.1C116.109 59.7 115.509 59.4 114.909 59.2C114.309 59 113.609 58.9 112.909 58.9C112.509 58.7 112.109 58.8 111.609 59ZM122.209 68.7L126.409 58.8H128.409L132.609 68.7H130.309L129.409 66.5H125.309L124.409 68.7H122.209ZM128.709 64.6L127.409 61.4L126.109 64.6H128.709ZM138.309 68.7V58.9H145.809V60.8H140.509V62.9H145.209V64.9H140.509V68.7H138.309ZM151.709 58.9V68.7H159.209V66.8H153.809V64.7H158.509V62.8H153.809V60.8H159.109V58.9H151.709ZM169.509 68.7V58.9H177.009V60.8H171.709V62.9H176.309V64.9H171.709V68.7H169.509ZM182.909 58.9V68.7H190.009V66.7H185.109V58.9H182.909ZM195.809 68.7V58.9H203.209V60.8H197.909V62.8H202.509V64.7H197.909V66.8H203.209V68.7H195.809ZM209.409 58.9V68.7H216.809V66.8H211.509V64.7H216.109V62.8H211.509V60.8H216.709V58.9H209.409ZM222.309 60.9V58.9H230.409V60.9H227.409V68.7H225.209V60.9H222.309Z" fill="white"/>
</svg>
