<?xml version="1.0" encoding="utf-8"?>
<!-- Generator: Adobe Illustrator 22.1.0, SVG Export Plug-In . SVG Version: 6.00 Build 0)  -->
<svg version="1.1" id="Слой_1" xmlns="http://www.w3.org/2000/svg" xmlns:xlink="http://www.w3.org/1999/xlink" x="0px" y="0px"
	 width="32.1px" height="32.2px" viewBox="0 0 32.1 32.2" style="enable-background:new 0 0 32.1 32.2;" xml:space="preserve">
<style type="text/css">
	.st0{fill:none;stroke:#FFFFFF;stroke-width:2;stroke-linecap:round;stroke-linejoin:round;}
</style>
<title>4AE4814E-A731-46FA-9060-A5E6BE05AC9F</title>
<g id="Page-1">
	<g id="COURSES" transform="translate(-369, -230)">
		<g id="chip-microchip-square-signal" transform="translate(369, 230)">
			<path id="Rectangle" class="st0" d="M11.9,11.2h8.3c0.5,0,0.8,0.4,0.8,0.8v8.3c0,0.5-0.4,0.8-0.8,0.8h-8.3
				c-0.5,0-0.8-0.4-0.8-0.8V12C11.1,11.6,11.4,11.2,11.9,11.2z"/>
			<line id="Path" class="st0" x1="31.1" y1="21.2" x2="26.1" y2="21.2"/>
			<line id="Path_1_" class="st0" x1="6.1" y1="11.2" x2="1.1" y2="11.2"/>
			<line id="Path_2_" class="st0" x1="6.1" y1="21.2" x2="1.1" y2="21.2"/>
			<line id="Path_3_" class="st0" x1="11.1" y1="1.2" x2="11.1" y2="6.2"/>
			<line id="Path_4_" class="st0" x1="11.1" y1="26.2" x2="11.1" y2="31.2"/>
			<line id="Path_5_" class="st0" x1="21.1" y1="26.2" x2="21.1" y2="31.2"/>
			<line id="Path_6_" class="st0" x1="16.1" y1="26.2" x2="16.1" y2="31.2"/>
			<path id="Path_7_" class="st0" d="M14.4,6.2h-3.3l0,0c-2.8,0-5,2.2-5,5l0,0v10l0,0c0,2.8,2.2,5,5,5h10l0,0c2.8,0,5-2.2,5-5v-3.3"
				/>
			<path id="Path_8_" class="st0" d="M19.4,6.2L19.4,6.2L19.4,6.2c3.7,0,6.7,3,6.7,6.7l0,0"/>
			<path id="Path_9_" class="st0" d="M19.4,1.2L19.4,1.2L19.4,1.2c6.4,0,11.7,5.2,11.7,11.7l0,0"/>
			<line id="Path_10_" class="st0" x1="6.1" y1="16.2" x2="1.1" y2="16.2"/>
		</g>
	</g>
</g>
</svg>
