<svg width="62" height="48" viewBox="0 0 62 48" fill="none" xmlns="http://www.w3.org/2000/svg">
<path fill-rule="evenodd" clip-rule="evenodd" d="M14 42.6207C12.555 42.6207 11.3793 41.445 11.3793 40C11.3793 38.555 12.555 37.3793 14 37.3793C15.445 37.3793 16.6207 38.555 16.6207 40C16.6207 41.445 15.445 42.6207 14 42.6207M14 36C11.7945 36 10 37.7945 10 40C10 42.2055 11.7945 44 14 44C16.2055 44 18 42.2055 18 40C18 37.7945 16.2055 36 14 36" fill="#0B4595"/>
<path fill-rule="evenodd" clip-rule="evenodd" d="M49 42.6207C47.555 42.6207 46.3793 41.445 46.3793 40C46.3793 38.555 47.555 37.3793 49 37.3793C50.445 37.3793 51.6207 38.555 51.6207 40C51.6207 41.445 50.445 42.6207 49 42.6207M49 36C46.7945 36 45 37.7945 45 40C45 42.2055 46.7945 44 49 44C51.2055 44 53 42.2055 53 40C53 37.7945 51.2055 36 49 36" fill="#0B4595"/>
<path fill-rule="evenodd" clip-rule="evenodd" d="M56.7599 38.1176C56.0807 34.117 52.5683 31.0588 48.3486 31.0588C44.1286 31.0588 40.6165 34.117 39.9371 38.1176H22.347C21.6679 34.117 18.1555 31.0588 13.9358 31.0588C9.7158 31.0588 6.2037 34.117 5.52426 38.1176H1.42202V4.83332C1.42202 2.94664 2.96775 1.41176 4.86814 1.41176H50.2726C52.1892 1.41176 53.8914 2.62221 54.5082 4.42391L56.3765 9.88235H41.4308V15.2637C41.4308 20.2687 45.5322 24.3405 50.5735 24.3405H60.578V38.1176H56.7599ZM48.3486 46.5882C44.4278 46.5882 41.2385 43.4216 41.2385 39.5294C41.2385 35.6372 44.4278 32.4706 48.3486 32.4706C52.2691 32.4706 55.4587 35.6372 55.4587 39.5294C55.4587 43.4216 52.2691 46.5882 48.3486 46.5882V46.5882ZM13.9358 46.5882C10.015 46.5882 6.82569 43.4216 6.82569 39.5294C6.82569 35.6372 10.015 32.4706 13.9358 32.4706C17.8563 32.4706 21.0459 35.6372 21.0459 39.5294C21.0459 43.4216 17.8563 46.5882 13.9358 46.5882V46.5882ZM60.578 22.6845V22.9288H50.5735C46.3163 22.9288 42.8528 19.4903 42.8528 15.2637V11.2941H56.8597L60.4068 21.6573C60.5202 21.9885 60.578 22.3344 60.578 22.6845V22.6845ZM61.7531 21.203L55.8546 3.9696C55.0418 1.59529 52.7984 0 50.2726 0H4.86814C2.18365 0 0 2.16819 0 4.83332V39.5294H5.40367C5.40367 44.2001 9.23117 48 13.9358 48C18.6404 48 22.4679 44.2001 22.4679 39.5294H39.8165C39.8165 44.2001 43.644 48 48.3486 48C53.0532 48 56.8807 44.2001 56.8807 39.5294H62V22.6845C62 22.1794 61.917 21.681 61.7531 21.203V21.203Z" fill="#2D2377"/>
</svg>
